<svg xmlns="http://www.w3.org/2000/svg" width="64" height="64" viewBox="0 0 64 64"><defs><style>.a,.c{fill:#5b646d;}.a{opacity:0.02;}.b{fill:none;}</style></defs><g transform="translate(-5015 -6083.95)"><g transform="translate(5015 6083.95)"><rect class="a" width="64" height="64"/></g><g transform="translate(5015 6083.95)"><g transform="translate(0 0)"><rect class="b" width="64" height="64"/></g><g transform="translate(5.474 5.184)"><path class="c" d="M28.761,2a26.761,26.761,0,1,0,0,53.521,6.693,6.693,0,0,0,6.69-6.69,6.807,6.807,0,0,0-1.713-4.469,1.413,1.413,0,0,1-.348-.883,1.325,1.325,0,0,1,1.338-1.338h4.737A16.069,16.069,0,0,0,55.521,26.085C55.521,12.811,43.506,2,28.761,2ZM43.479,31.437a4.014,4.014,0,1,1,4.014-4.014A4.009,4.009,0,0,1,43.479,31.437Zm-8.028-10.7a4.014,4.014,0,1,1,4.014-4.014A4.009,4.009,0,0,1,35.451,20.733Zm-25.423,6.69a4.014,4.014,0,1,1,4.014,4.014A4.009,4.009,0,0,1,10.028,27.423Zm16.056-10.7A4.014,4.014,0,1,1,22.071,12.7,4.009,4.009,0,0,1,26.085,16.718Z" transform="translate(-2 -2)"/></g></g></g></svg>