<?xml version="1.0" encoding="utf-8"?>
<!-- Generator: Adobe Illustrator 23.0.1, SVG Export Plug-In . SVG Version: 6.00 Build 0)  -->
<svg version="1.1" id="Capa_1" xmlns="http://www.w3.org/2000/svg" xmlns:xlink="http://www.w3.org/1999/xlink" x="0px" y="0px"
	 viewBox="0 0 208 117" style="enable-background:new 0 0 208 117;" xml:space="preserve">
<style type="text/css">
	.st0{fill:#434850;}
	.st1{fill:#FFFFFF;}
</style>
<g>
	<g>
		<path class="st0" d="M138.9,97.4H69.1c-3.5,0-6.3-2.8-6.3-6.3V25.8c0-3.5,2.8-6.3,6.3-6.3h69.8c3.5,0,6.3,2.8,6.3,6.3v65.3
			C145.2,94.6,142.4,97.4,138.9,97.4z"/>
		<path class="st1" d="M140.9,32.8H67.3v-6.3c0-1.5,1.2-2.7,2.7-2.7h68.2c1.5,0,2.7,1.2,2.7,2.7V32.8z"/>
		<path class="st1" d="M138.8,93.2H69.4c-1.2,0-2.1-0.9-2.1-2.1V37h73.6v54.1C140.9,92.3,139.9,93.2,138.8,93.2z"/>
		<path class="st0" d="M95.2,50.1H76.1c-1.3,0-2.3-1-2.3-2.3v0c0-1.3,1-2.3,2.3-2.3h19.1c1.3,0,2.3,1,2.3,2.3v0
			C97.5,49.1,96.4,50.1,95.2,50.1z"/>
		<path class="st0" d="M90.9,67.4H76.1c-1.3,0-2.3-1-2.3-2.3v0c0-1.3,1-2.3,2.3-2.3h14.8c1.3,0,2.3,1,2.3,2.3v0
			C93.2,66.4,92.1,67.4,90.9,67.4z"/>
	</g>
	<path class="st0" d="M86.3,84.7H76.1c-1.3,0-2.3-1-2.3-2.3v0c0-1.3,1-2.3,2.3-2.3h10.2c1.3,0,2.3,1,2.3,2.3v0
		C88.6,83.7,87.6,84.7,86.3,84.7z"/>
	<path class="st0" d="M129.7,67.5h-8.4c-1.3,0-2.3-1-2.3-2.3l0,0c0-1.3,1-2.3,2.3-2.3h8.4c1.3,0,2.3,1,2.3,2.3l0,0
		C132,66.5,131,67.5,129.7,67.5z"/>
	<path class="st0" d="M132.9,54.2h-27.6c-1.9,0-3.5-1.6-3.5-3.5v-6c0-1.9,1.6-3.5,3.5-3.5h27.6c1.9,0,3.5,1.6,3.5,3.5v6
		C136.4,52.6,134.8,54.2,132.9,54.2z"/>
	<rect x="106.1" y="45.6" class="st1" width="26" height="4.3"/>
	<path class="st0" d="M111.2,71.8h-5.8c-2,0-3.6-1.6-3.6-3.6v-5.8c0-2,1.6-3.6,3.6-3.6h5.8c2,0,3.6,1.6,3.6,3.6v5.8
		C114.7,70.2,113.1,71.8,111.2,71.8z"/>
	<rect x="105.1" y="62.2" class="st1" width="6.3" height="6.3"/>
	<path class="st0" d="M129.4,88.8h-25c-1.4,0-2.6-1.2-2.6-2.6V79c0-1.4,1.2-2.6,2.6-2.6h25c1.4,0,2.6,1.2,2.6,2.6v7.2
		C132,87.6,130.9,88.8,129.4,88.8z"/>
	<rect x="106.1" y="80.3" class="st1" width="21.8" height="4.4"/>
</g>
</svg>
