<?xml version="1.0" encoding="utf-8"?>
<!-- Generator: Adobe Illustrator 23.0.1, SVG Export Plug-In . SVG Version: 6.00 Build 0)  -->
<svg version="1.1" id="Capa_1" xmlns="http://www.w3.org/2000/svg" xmlns:xlink="http://www.w3.org/1999/xlink" x="0px" y="0px"
	 viewBox="0 0 208 117" style="enable-background:new 0 0 208 117;" xml:space="preserve">
<style type="text/css">
	.st0{fill:#FFFFFF;}
	.st1{fill:#FFFFFF;stroke:#434850;stroke-miterlimit:10;}
	.st2{fill:none;stroke:#434850;stroke-width:1.0613;stroke-miterlimit:10;}
	.st3{fill:#434850;}
	.st4{fill:none;stroke:#434850;stroke-width:1.0532;stroke-miterlimit:10;}
	.st5{fill:#434850;stroke:#FFFFFF;stroke-width:0.2968;stroke-linecap:round;stroke-linejoin:round;stroke-miterlimit:10;}
	.st6{fill:#434850;stroke:#FFFFFF;stroke-miterlimit:10;}
	.st7{fill:#434850;stroke:#434850;stroke-width:2.4873;stroke-miterlimit:10;}
</style>
<path class="st0" d="M203.5,115.5H4.5c-1.7,0-3-1.3-3-3V4.5c0-1.7,1.3-3,3-3h199c1.7,0,3,1.3,3,3v108
	C206.5,114.2,205.2,115.5,203.5,115.5z"/>
<g>
	<g>
		<polygon class="st1" points="119.2,84.1 111.6,92.7 76.1,92.7 76.1,24.3 124.2,24.3 124.2,79 		"/>
		<polygon class="st2" points="74.3,22.6 125.9,22.6 125.9,42.7 125.9,80.2 113,94.4 74.3,94.4 		"/>
	</g>
	<rect x="81.8" y="31.6" class="st3" width="36.3" height="3.2"/>
	<rect x="81.8" y="49.4" class="st3" width="36.3" height="3.2"/>
	<rect x="81.8" y="58.3" class="st3" width="36.3" height="3.2"/>
	<rect x="81.8" y="67.2" class="st3" width="27.3" height="3.2"/>
	<rect x="82" y="39.1" class="st4" width="5.9" height="5.9"/>
	<rect x="91" y="41.7" class="st3" width="27.3" height="3.2"/>
	<polygon class="st5" points="83.6,40.4 84.8,42.7 88.3,36.6 89,37.1 84.6,45 82.9,40.8 	"/>
	<path class="st6" d="M111.7,66.6l0.1,4.2l4-1.4l13.9-20.6l-4.1-2.8L111.7,66.6z M133.4,43.4c0.5-0.7,0.3-1.7-0.4-2.2l-1.5-1
		c-0.7-0.5-1.7-0.3-2.2,0.4L127,44l4.1,2.8L133.4,43.4z"/>
	<polygon class="st7" points="113.2,88.9 121.5,80.2 114.6,80.6 	"/>
</g>
</svg>
