<?xml version="1.0" encoding="utf-8"?>
<!-- Generator: Adobe Illustrator 23.0.1, SVG Export Plug-In . SVG Version: 6.00 Build 0)  -->
<svg version="1.1" id="Capa_1" xmlns="http://www.w3.org/2000/svg" xmlns:xlink="http://www.w3.org/1999/xlink" x="0px" y="0px"
	 viewBox="0 0 208 117" style="enable-background:new 0 0 208 117;" xml:space="preserve">
<style type="text/css">
	.st0{fill:#FFFFFF;}
	.st1{fill:#434850;}
</style>
<path class="st0" d="M203.5,115.5H4.5c-1.7,0-3-1.3-3-3V4.5c0-1.7,1.3-3,3-3h199c1.7,0,3,1.3,3,3v108
	C206.5,114.2,205.2,115.5,203.5,115.5z"/>
<g>
	<path class="st1" d="M107.3,90.6c-0.1-0.4,0-0.9-0.2-1.3c-1-1.9-1.7-3.8-1.9-5.9c0-0.3-0.1-0.7-0.3-0.9c-0.8-1.3-0.5-2.6,0-3.8
		c0.5-1.2,0.3-2.4-0.3-3.6c-0.4-0.8-0.9-1.6-1.3-2.5c-0.2-0.3-0.2-0.8-0.2-1.1c0-0.7,0-1.3,0-2c0-0.6-0.3-0.9-1-0.9
		c-0.3,0-0.7-0.1-1-0.4c-0.5-0.4-1.1-0.6-1.8-0.4c-1.4,0.3-2.9,0.5-4.4,0.7c-0.8,0.1-2.3-1.1-2.8-2c-0.5-1.1-1.2-2.1-1.7-3.2
		c-0.1-0.3-0.2-0.6-0.2-0.9c0.1-0.8,0.4-1.7,0.3-2.5c-0.3-2.3,1-3.7,2.4-5.1c0.6-0.6,1.1-1.2,1-2.1c0-0.3,0.2-0.6,0.4-0.9
		c0.5-0.6,1.4-1.5,1.8-1.9c0.6,0,2,0.2,2.6,0.1c1.7-0.3,2.1-0.4,3.8-0.7c1-0.2,1.4,0.2,1.2,1.2c-0.1,0.7,0.1,1,0.6,1.3
		c0.9,0.5,1.8,0.9,2.6,1.4c0.6,0.4,1.2,0.3,1.4-0.4c0.3-0.7,0.7-0.7,1.3-0.5c0.4,0.1,0.8,0.3,1.2,0.4c1.2,0.2,2.4,0.4,3.5,0.5
		c0.2,0,0.6-0.2,0.6-0.4c0.4-1,0.7-2,1-3.2c-1.2,0-2,0-2.9,0c-1.1,0-2-1-1.6-2c0.2-0.4,1-0.7,1.5-0.9c1.1-0.5,2.3-0.7,3.5-0.1
		c0.1,0,0.1,0,0.2,0c0.7,0.1,1.5,0.3,1.8-0.4c0.1-0.3-0.5-0.9-0.8-1.3c-0.4-0.5-1.2-0.7-0.8-1.6c-0.5,0-0.9,0-1.5,0
		c0.1,0.3,0.2,0.5,0.3,0.7c0,0.1-0.1,0.1-0.1,0.2c-0.4-0.2-0.8-0.4-1.4-0.7c-1.3,0.4-1.8,1-2,2.6c0,0.3-0.3,0.7-0.6,0.8
		c-0.6,0.3-1.2,0.5-1.9,0.7c0.1,0.3,0.4,0.7,0.4,1.1c-0.1,0.3-0.5,0.7-0.8,0.7c-0.1,0-0.1-0.1-0.2-0.2c0.2-0.2,0.3-0.4,0.4-0.5
		c-0.4-0.5-1-0.9-1.2-1.5c-0.5-1.5-1.9-2.1-2.8-3.1c-0.6,0.3-0.8,0.7-0.4,1.1c0.6,0.7,1.4,1.4,2.1,2c-0.2,0.1-0.2,0.7-0.2,0.7
		s-0.1,0.4-0.2,0.5c-0.5-0.5-1.1-1.2-1.6-1.6c-0.4-0.3-0.8-0.7-1.2-1c-1-1-1.9-1.1-3.1-0.2c-1,0.8-1.8,1.8-2.6,2.8
		c-0.7,0.7-2.2,1.1-2.2,1.1l-1.8-0.5c0,0-0.3-0.7-0.3-1c0-0.4,0.1-1.2,0.2-1.9c0,0,0.1-0.1,0.1-0.1c0,0-0.1-0.1-0.1-0.1
		c0-0.2-0.1-0.3,0-0.6c0,0,0-0.2,0.1-0.1c0,0,0,0,0,0c0.8,0.1,1.5,0.1,2.3,0.1c1,0.1,1.5-0.4,1.3-1.3c-0.2-0.8-0.7-1.4-1.1-2.1
		c0.7-0.5,1.6-1.2,2.6-1.7c1.3-0.6,1.8-2.4,3.5-2c0.1-0.9,0.1-1.5,0.2-2.2c0.1,0,0.2,0,0.3,0c0,0.1,0.1,0.2,0.1,0.3
		c-0.2,1.3,0,1.1,1.2,1.5c1.1,0.3,1.7-0.2,2.5-0.4c0.2,0,0.4,0.1,0.6,0.1c0.6,0.1,1.2-0.6,1.3-1.2c0-0.3,0.1-0.6,0.2-1.1
		c0.4,0.2,0.7,0.4,1.2,0.7c-0.1-0.6,0-0.9-0.2-1.2c-0.3-0.6-0.1-0.9,0.5-0.9c0.7-0.1,1.4-0.2,2-0.3c0-0.1,0-0.2,0-0.3
		c-0.3-0.1-0.7-0.2-1-0.2c-0.4,0-0.8,0.1-1.2,0.1c-0.4,0-1.1,0.1-1.3-0.1c-0.4-0.6-0.4-1.3,0.1-2c0.5-0.6,1-1.1,1.4-1.7
		c-0.1-0.1-0.1-0.2-0.2-0.3c-0.3,0.1-0.7,0.2-0.9,0.4c-0.8,0.8-1.7,1.7-2.4,2.6c-0.1,0.2-0.1,0.6,0,0.9c0,0.2,0.2,0.3,0.3,0.5
		c0.2,0.6-1,2.6-1.6,2.8c-0.3,0.1-0.6,0.2-1,0.3c-0.2-0.6-0.4-1.1-0.7-1.6c-0.3-0.7-0.7-0.9-1.4-0.6c-1,0.5-1.1,0.2-1.4-0.8
		c-0.4-1.4,0.5-2,1.2-2.6c0.5-0.1,1-0.1,1.2-0.3c0.2-0.3,0-0.8,0-1.4c0.4-0.4,1.2-0.8,1.7-1.4c0.5-0.6,1.5-0.8,1.4-1.6
		c0.7-0.4,1.4-0.7,2-1c1.1-0.5,2.6-0.6,4.1-0.2c-0.1,0.1-0.2,0.3-0.5,0.5c2.3,0,4.1,0.9,5.8,2.1c-0.4,0.9-1.1,0.8-1.9,0.9
		c-0.4,0-0.8,0.1-1.2,0.2c0.1,0.4,0.1,0.8,0.3,1.1c0.3,0.3,0.7,0.4,1.1,0.6c0.1-0.1,0.1-0.2,0.2-0.3c-0.1-0.2-0.3-0.4-0.5-0.7
		c0.3,0.1,0.4,0.1,0.6,0.2c0.5,0.2,0.8,0.3,1.1-0.4c0.1-0.3,0.7-0.7,1.1-0.7c1.1,0.1,1-0.5,0.8-1.2c0-0.2-0.1-0.3-0.2-0.7
		c0.4,0.2,0.7,0.3,1,0.4c-0.1,0.3-0.2,0.5-0.3,0.8c0.3,0,0.7,0.2,0.9,0.1c1-0.5,2-1,3-1.6c0.4,0.9,0.9,0.6,1.5,0.4
		c0.4-0.2,0.8-0.7,1.3-0.1c0,0.1,0.4,0,0.6-0.2c1-1.1,2-0.6,3.1-0.2c0.2,0.1,0.3,0.2,0.5,0.2c0.2,0,0.5,0,0.6-0.1
		c0.1-0.1,0-0.4,0-0.6c-0.3-0.4-0.6-0.8-0.8-1.1c0.4-0.6,0.7-1.2,1.2-1.7c0.2-0.2,0.6-0.3,0.9-0.2c0.2,0,0.3,0.4,0.4,0.7
		c0.1,0.4,0.1,0.8,0.1,1.2c0.3,1.2,0.1,2.3-0.5,3.3c-0.4-0.1-0.7-0.2-1.1-0.3c0.9,0.9,1.2,0.9,2,0c0.1-0.2,0.3-0.3,0.4-0.5
		c0.8-1.3,0.8-1.3,1.6,0c0.1,0.2,0.4,0.3,0.8,0.6c-0.5-1.6-0.5-1.6-2-2.2c-0.7-0.3-0.7-1.6,0-2.4c0.3,0.7,0.7,1.3,1.9,1.2
		c-0.3-0.4-0.6-0.6-0.9-1c0.7,0.1,1.3,0,1.9,0.2c0.3,0.1,0.6,0.5,0.8,0.8c0.1,0.1,0.3,0.2,0.4,0.4c0.1-0.2,0.3-0.4,0.2-0.5
		c-0.2-0.4-0.5-0.8-0.8-1.2c-0.2-0.2-0.3-0.4-0.5-0.6c0.3-0.1,0.5-0.3,0.8-0.3c0.7,0,1.4,0.1,2.3,0.1c-0.2-0.4-0.3-0.7-0.5-1.1
		c2.5-1.1,5.1-0.7,7.6-1.4c0.2-1.3,0.5-1.5,1.6-1.3c-0.1,0.2-0.1,0.4-0.3,0.8c0.9,0.1,1.6,0.1,2.4,0.2c0.6,0.1,1.2,0.1,2,0.2
		c-0.3,0.6-0.5,1-0.7,1.4c0.2,0.3,0.6,0.6,0.9,1c0-0.1,0-0.1,0-0.2c0.9,0.2,1.8,0.4,2.7,0.5c0.6,0.1,1.3,0,2-0.1
		c0.9-0.2,1.7-0.4,2.6,0.2c-0.3,0.2-0.5,0.3-0.8,0.5c0.5,0.5,0.9,0.9,1.4,1.3c0.5,0.4,1,0.6,1.3-0.3c0.9,0.1,1.7,0.2,2.6,0.2
		c0.7,0,1.3-0.2,1.2-1.2c0.8,0,1.6,0,2.5,0c-0.1,0.3-0.1,0.5-0.1,0.7c0.1,0,0.1,0.1,0.2,0.1c0.8-0.3,1.5-0.9,2.3,0.2
		c0.6,0.8,1.8,0.6,2.7,0.5c0.7-0.1,1.5-0.3,1.9,0.8c0.1,0.2,0.5,0.3,0.7,0.3c1.4,0.2,2.9,0.3,4.4,0.5c0-0.2,0-0.5,0.1-0.9
		c2.6,0.6,5.6,0.2,7.3,3c0.6-0.6,1.1-0.6,1.8,0.1c-0.5,0.4-1.1,0.8-1.6,1.1c0.2,0.2,0.3,0.4,0.5,0.5c-0.4-0.3-0.9-0.5-1.3-0.8
		c-0.8-0.5-2.4-0.1-2.8,0.6c-0.1,0.1,0,0.4,0,0.6c0.1,0.3,0.2,0.6,0.2,0.7c-1.4,0.6-2.6,1.2-3.9,1.7c-0.2,0.1-0.6,0.2-0.8,0.1
		c-1.1-0.4-2.1,0.1-3,0.6c-0.6,0.3-0.6,1-0.3,1.5c0.4,0.8-0.2,1.5-0.5,2c-0.5,0.9-1.4,1.6-2.2,2.4c-1-1.6-0.7-3.6,0.7-4.7
		c0.8-0.7,1.6-1.5,2.3-2.5c-0.4,0.2-0.9,0.4-1.3,0.6c-0.2-0.9-0.5-1-1.2-0.4c-0.6,0.5-1.2,1-1.8,1.5c-0.2,0.1-0.5,0.1-0.8,0
		c-1.2-0.1-2.5-0.3-3.7-0.1c-0.8,0.1-1.5,0.7-2.2,1.2c-0.6,0.4-1,0.9-1.5,1.4c-0.2,0.3-0.4,0.8-0.2,1c0.1,0.2,0.7,0.4,0.9,0.3
		c0.7-0.2,1,0.2,1,0.7c0,0.7,0.1,1.6-0.1,2.2c-0.6,1.3-1.4,2.6-2.2,3.8c-0.3,0.4-0.9,0.6-1.4,0.9c-0.8,0.6-1.6,1.2-2.3,1.8
		c-0.2,0.1-0.2,0.5-0.1,0.7c0.1,0.4,0.2,0.8,0.3,1.1c0.3,1,0.3,1.1-0.8,1.4c-0.3-0.9-0.6-1.8-1-2.7c-0.1-0.2-0.8-0.2-1.2-0.2
		c-0.2,0-0.3,0.3-0.7,0.5c0.2-0.5,0.2-0.8,0.4-1.3c-0.7,0.6-1.2,1.1-1.8,1.6c0,0.1,0.1,0.2,0.1,0.3c0.5,0.1,1.1,0.2,1.6,0.4
		c-0.3,0.4-0.8,0.7-0.9,1.2c-0.1,0.5,0.4,1,0.5,1.5c0.1,0.4,0.1,0.9,0.2,1.3c0.3,1.1-0.4,1.9-0.8,2.8c-0.6,1.2-1.6,1.9-2.9,2.3
		c-1.3,0.4-2.8,0.7-3.6,1.9c0.5,1.1,0.9,2.1,1.3,3.1c0.4,1-0.1,1.7-1,2.3c-0.3,0.2-0.5,0.3-0.7,0.5c-0.3-0.5-0.7-0.9-1-1.4
		c-0.3-0.7-1.1-1-1.5-0.6c-0.4,0.4-0.6,1.3-0.5,1.9c0.1,0.6,0.6,1.1,1,1.6c0.7,0.8,0.9,1.7,1,2.8c-0.9-0.6-1.2-1.5-1.6-2.2
		c-1-1.8-0.4-4-1.2-5.8c-0.1-0.3-0.2-0.6-0.3-0.9c-0.4,0.2-0.8,0.3-1.4,0.6c0.3-1.4-0.3-2.4-1.1-3.3c-0.3-0.3-0.6-0.5-1-0.2
		c-0.6,0.4-1.3,0.7-1.8,1.2c-1,0.9-1.8,1.9-2.7,2.9c-0.3,0.3-0.3,0.9-0.4,1.3c-0.3,0.8-0.5,1.6-0.9,2.4c-1.5-2.5-2.6-5-2.6-7.8
		c-0.4,0.1-0.8,0.2-1.1,0.2c0-0.2-0.1-0.5-0.1-0.8c-1.2-1.1-2.7-1.5-4.5-1.5c-0.6,0-1.1-0.4-1.7-0.7c-0.1,0-0.2-0.2-0.3-0.2
		c-1.4,0.1-2.2-0.6-2.9-1.6c-0.7,0.4-0.8,0.9-0.4,1.5c0.2,0.4,0.4,0.8,0.6,1.2c0.6,1,1,1,1.9,0.3c0.2-0.2,0.4-0.4,0.3-0.2
		c0.6,0.6,1.3,1.1,2,1.8c-0.5,1.5-1.6,2.7-3.2,3.5c-1.1,0.5-2.2,1.1-3.4,1.6c-0.8,0.4-1.2,0.2-1.3-0.7c-0.1-1.2-0.5-2.2-1.3-3.1
		c-0.3-0.3-0.3-0.8-0.5-1.2c-0.3-0.5-0.6-1-0.8-1.5c-0.2-0.5-0.3-1-0.6-1.4c-0.3-0.5-0.3-1.5-1.3-1.1c-0.1,0-0.3-0.3-0.4-0.4
		c-0.1,0-0.1,0.1-0.2,0.1c0.1,0.3,0.3,0.6,0.4,0.9c0.8,1.5,1.7,3,1.8,4.8c0.1,0.6,0.7,1.3,1.1,1.8c0.6,0.9,1.1,1.8,1.8,2.6
		c0.3,0.4,1,0.6,1.5,0.6c0.7,0,1.5-0.3,2.3-0.4c-0.7,3.1-2.1,5.7-4.7,7.7c-1.1,0.9-1.5,2.7-0.9,4.4c0.2,0.5,0.3,1,0.4,1.5
		c0.2,1.2,0,2.3-1,3.1c-0.4,0.3-0.6,0.7-0.9,1c-0.5,0.5-0.8,1-0.6,1.7c0.2,0.6,0,1.2-0.5,1.7c-0.4,0.4-0.6,1-0.8,1.5
		c-0.8,3-3,4.5-6.1,4.3c-0.4,0-0.8-0.3-1.2-0.5C107.1,90.7,107.2,90.7,107.3,90.6z"/>
	<path class="st1" d="M52.9,25.7c-0.1-0.1-0.2-0.1-0.3-0.2c-0.2-0.3-0.6-0.5-0.6-0.8c0-0.2,0.5-0.6,0.6-0.6c0.3,0.1,0.7,0.3,0.9,0.6
		c0.3,0.5,0.6,1.2,0.9,1.8c0.4-0.3,0.6-0.5,1-0.8c0.3,0.6,0.6,1.2,0.8,1.8c0.1,0,0.2,0,0.3,0.1c0.3-0.6,0.6-1.1,0.9-1.9
		c0.4,0,1.1-0.1,1.2,0.7c0.4,1.8,0.3,1.8-1.9,2.4c0.9,0.6,1.7,1.2,2.5,1.8c0,0.1-0.1,0.2-0.1,0.3c-0.2-0.1-0.4-0.1-0.6-0.1
		c-0.3,0-0.6,0-0.8,0.1c-0.4,0.5-0.8,0.4-1.2,0.1c0-0.5,0.1-1,0.2-1.7c-1.2,1.1-2.2,2-3.2,2.9c-0.3,0.3-0.6,0.6-0.7,0.9
		c-0.2,0.3-0.3,0.9-0.2,1.1c0.4,0.6,0.8,1.2,1.4,1.5c1.3,0.7,2.7,1.3,4.1,1.9c-0.2,0.9,0.1,1.7,1,2.4c0.6,0.4,0.9,0.3,1.1-0.3
		c0.3-1.1,0.5-2.2,0.7-3.3c0-0.1,0.1-0.3,0-0.4c-0.5-0.8-0.3-1.7-0.3-2.6c0.1-1.6,0.7-2.2,2.2-1.5c0.5,0.2,1,0.6,1.5,1
		c0.1,0.1,0.2,0.4,0.1,0.5c-0.3,0.6,0,1.1,0.4,1.3c0.4,0.1,1-0.1,1.4-0.2c0.3-0.1,0.5-0.4,0.8-0.6c0.7,1.6,1.3,3.2,3.2,3.8
		c-0.4,0.3-0.7,0.5-0.9,0.7c0,0.1,0.1,0.1,0.1,0.2c0.2,0,0.5-0.1,0.7-0.1c0.4-0.1,0.9-0.2,1,0.4c0.1,0.6,0.1,1-0.6,1.2
		c-1,0.2-2,0.5-3,0.7c-0.4,0.1-0.8,0.3-1.3,0.5c0.5,0.3,0.7,0.4,1,0.6c-0.4,0.2-0.6,0.4-0.8,0.5c-0.4,0.3,1.8,1.4,2.3,1.4
		c-0.6,0.1-1.5,1-2.1,1.2c-0.1-0.5,0.5-0.9,0.9-1.3c-1.8,0.5-2.3,1.3-3.5,2.6c-0.2,0.3-0.5,0.5-0.8,0.8c-1,1-1.6,2.3-2.3,3.5
		c-0.5,0.9-2,2.3-1.8,3.4c0.2,0.8,0.4,1.7,0.5,2.5c-0.1,0.1-0.2,0.1-0.4,0.2c-0.2-0.4-0.5-0.8-0.7-1.3c-0.5-1.6-1.3-2-2.8-1.4
		c-0.2,0.1-0.4,0.3-0.7,0.6c-0.3-0.1-0.8-0.2-1.3-0.3c-0.8-0.1-1.4,0.1-1.9,0.8c-1.2,1.5-1,3-0.3,4.6c0.3,0.7,0.9,1,1.7,1
		c0.7,0,1.1-0.3,1.3-1.1c0.2-0.7,0.8-0.8,1.7-0.7c-0.1,0.7-0.2,1.4-0.4,2c-0.2,0.7-0.1,1.1,0.7,1.2C58,62,58,62.1,58,63.6
		c0,0.6,0.3,1.2,0.5,1.7c0.1,0.2,0.5,0.3,0.8,0.3c0.7,0.1,1.4,0.1,2.1,0.2c0.6-0.6,1.3-1.2,2.2-2.1c0,0.7-0.6,1.4,0.2,1.7
		c0.2-0.5,0.5-0.9,0.6-1.1c1.5,0.3,3.4,0.2,4.6,1.4c0.4,0.4,0.7,0.9,1.2,1.2c1.2,1,4.4,1.2,3.7,3.5c-0.1,0.3-0.3,0.6-0.4,0.8
		c0.3-0.1,0.6-0.2,0.9-0.2c0,0,0.1,0,0.1,0c0.1,0.1,0,0.2,0,0.3c-0.2,0.3-0.5,0.5-0.7,0.8c0.3,0.2,0.6,0.1,0.9-0.1s0.5-0.4,0.8-0.5
		c0.9-0.2,2.2,1,3.1,1.1c1.1,0.1,1.9,0.8,2.6,1.5c0.3,0.3,0.2,1.1,0,1.6c-0.3,0.9-1,1.5-1.4,2.4c-0.5,1-0.5,2.4-0.7,3.5
		c-0.1,0.7-0.3,1.4-0.8,1.9c-0.5,0.5-1.2,0.6-1.8,0.9c-1.3,0.7-1.8,2.2-2.3,3.6c-0.4,1.2-0.9,2.3-2.1,2.9c-0.5,0.3-1,0.5-1.2,1
		c-0.1,0.3,0,0.5-0.1,0.8c-0.2,0.5-0.8,0.7-1.3,0.9c-2.1,0.8-2.9,3-3.7,5c-0.1,0.2,0.3,0.6,0.5,1.1c-0.7,1.2-1.6,2.6-2.4,3.9
		c-0.6-0.5-1-0.9-1.6-1.4c-0.1-0.1,0.2-1.6,0.3-1.8c0.1-0.2,0.3-0.3,0.3-0.5c0.1-0.3-0.7-0.9-0.6-1c0.7-0.9,0.7-1.9,0.5-2.9
		c-0.3-1.5,0-3,0.4-4.4c0.3-0.8,0.5-1.6,0.6-2.4c0.2-2.3,0.3-4.5,0.5-6.8c0.1-0.6-0.1-1.1-0.6-1.5c-1.8-1.1-2.8-2.7-3.3-4.7
		c-0.2-0.7-0.5-1.4-0.8-2c-0.3-0.6-0.6-1.1,0-1.3c0-0.7-0.1-1.2,0-1.6c0.2-0.6,0.5-1.3,0.9-1.8c0.8-1,0.7-2.1,0.3-3.2
		c-0.2-0.5-0.5-1-1.1-0.4c-0.1,0.1-0.3,0.1-0.5,0.1c-1-0.3-1.9-0.7-2.4-1.7c-0.2-0.5-0.8-0.8-1.2-1.1c-0.5-0.3-1.1-0.5-1.6-0.8
		c-1.9-1-4-1.4-5.9-2.6c-0.2-0.1-0.4-0.2-0.5-0.4c-0.1-0.2-0.2-0.4-0.2-0.6c-0.5-1.9-2.1-3.1-3-4.8c-0.2-0.3-0.3-0.6-0.5-0.9
		c-0.2-0.2-0.4-0.4-0.7-0.5c0.3,1.8,1.3,3.2,2.1,4.8c-0.3-0.2-0.6-0.4-0.8-0.7c-0.5-0.6-0.9-1.2-1.3-1.9c-0.3-0.6-0.6-1.3-0.8-2
		c-0.3-0.9-0.9-1.5-1.6-2.1c0,0-0.1,0-0.1-0.1c-1.1-1.3-2.2-2.6-2.3-4.4c-0.1-1.4,0-2.7,0-4c0.4-0.1,0.8-0.1,0.9-0.2
		c0.1-0.2,0-0.6-0.1-0.7c-0.7-0.7-1.4-1.3-2.2-1.9c-0.3-0.5-0.8-1.1-1.1-1.6c-0.3-0.6-0.2-1.3-0.6-1.8c-0.2-0.2-0.5-0.4-0.7-0.6
		c-0.7-0.5-1.1-1.2-1.9-1.6c-0.9-0.4-1.9-0.5-2.9-0.8c-0.7-0.3-1.4-0.5-2.2-0.7c-0.4-0.1-0.8-0.2-1.1,0.3c-0.4,0.7-0.9,0.6-1.3,0
		c-1.3,1.8-3.1,2.9-5.1,3.6c0.9-0.6,2.1-0.9,2.3-2.1c-1.2-0.5-2.2-0.9-3.2-1.4c-0.3-0.2-0.6-0.8-0.6-1.2c0-0.3,0.5-0.7,0.9-0.9
		c0.6-0.3,1.3-0.6,1.1-1.6c-1.2,0.7-2.2,0.6-3-0.9c0.7,0,1.4,0,2,0c0.3,0,0.6-0.1,1.2-0.2c-1-0.7-1.8-1.3-2.7-1.9
		c1.4-0.7,2.6-1.4,3.9-2c0.5-0.2,1.3-0.2,1.9-0.1c1.3,0.2,2.6,0.4,3.9,0.6c1.6,0.3,3.2,0.7,4.9,1.1c0.2,0,0.3,0.3,0.4,0.5
		c0.1,0.2,0.3,0.5,0.4,0.7c0.1,0,0.2-0.1,0.3-0.1c-0.1-0.5-0.1-0.9-0.2-1.4c0.4-0.2,0.9-0.4,1.6-0.7c-0.4,0.4-0.6,0.6-0.8,0.8
		c0,0.1,0.1,0.2,0.1,0.2c0.4-0.1,0.9-0.2,1.2-0.5c0.8-0.5,1.4-0.7,2.4-0.4c1.4,0.4,2.8,0.4,4.3,0.5c0.1,0,0.3,0.1,0.5,0.2
		c-0.1,0.2-0.2,0.4-0.4,0.9c0.8,0,1.4-0.1,2,0c0.6,0.2,1,0.6,1.6,0.9c0.1-0.3,0.2-0.7,0.3-1.1c-0.1-0.1-0.3-0.2-0.5-0.4
		c0-0.1,0-0.2,0-0.3c0.5,0,1.1-0.2,1.4,0c1.3,1,2.5,0.9,3.9,0.4c0.4-0.1,0.8,0.1,1.2,0.1C52.5,26.4,52.7,26,52.9,25.7z"/>
	<path class="st1" d="M76.8,33c-1.7-0.8-3.2-1.6-3.3-3.6c-1.3-0.6,0.3-1.3-0.1-2c-0.2,0-0.4,0-0.8,0.1c0.4-0.3,0.6-0.4,0.7-0.5
		c0.1-0.5,0.2-0.8,0.3-1.1c0.3-0.9-0.6-0.8-1-1.1c0.7-0.7,0.7-0.8,0-1.6c-0.2,0.2-0.4,0.3-0.6,0.5C72,22.5,70.6,20,69,20.1
		c-0.9,0-1.9,0.2-2.8,0.1c-0.2,0-1.9-0.6-1.6-0.7c0.5-0.2,1-0.3,1.5-0.5c0-0.1,0-0.2,0-0.3c-0.8-0.1-1.5-0.2-2.3-0.3
		c0-0.1,0-0.2-0.1-0.2c0.8-0.2,1.6-0.5,2.4-0.6c0.8-0.2,1.2-0.6,1.4-1.5c-0.5,0-1,0.1-1.5,0.1c0-0.1,0-0.2-0.1-0.3
		c0.6-0.2,1.1-0.3,1.7-0.5c0.5-0.2,1.3-0.1,1.3-1c0-0.5,0.9,0.2,1,0.2c0-0.3,0.3-0.6,0.6-0.7s0.6-0.1,0.9-0.1c1,0,1.9-0.5,2.9-0.6
		c0.7-0.1,1.5,0,2.2,0c-0.2-1-0.5-1.2-1.3-0.9c0.2-0.1,0.3-0.4,0.5-0.4c0.8,0.1,1.6,0.2,2.4,0.3c0.2,0,0.5,0.1,0.6,0
		c1-1,2.2-0.2,3.3-0.3c-0.2,0.2-0.5,0.3-0.7,0.5c0,0.1,0,0.1,0.1,0.2c1.5-0.1,3.1-0.3,4.6-0.4c0.3,1.2,1.2,0.4,1.9,0.7
		c-1.7,0.4-3.3,0.8-4.8,1.2c0,0.1,0,0.3,0.1,0.4c0.3,0,0.6-0.1,0.8-0.1c0.9-0.1,1.8-0.3,2.8-0.4c0.3,0,0.6,0.3,0.9,0.4
		c0.1,0.1,0.3,0.1,0.4,0.1c1-0.1,1.9-0.3,2.9-0.4c0.5-0.1,0.9,0,1.4,0c0,0.1,0,0.2,0.1,0.3c-1.1,0.5-2.3,0.9-3.5,1.4
		c0.3,0.1,0.5,0.2,0.8,0.2c-0.3,0.6-0.9,1.2-0.9,1.8c0,0.4,0.2,0.9,0.6,1c-0.3-0.2-0.8,0.1-0.8,0.4c-0.1,0.3,0.1,0.6-0.1,0.8
		c0,0,0.8,0.8,0.9,0.9c-0.5-0.4-0.9,0.6-0.7,1c-0.5,0-1.1-0.2-1.6-0.2s-1.2,0.4-1.1,0.9c0.1,0.5,0.6,0.6,1.1,0.8
		c0.4,0.2,0.9,0.6,0.8,1c0,0-1-0.7-1.2-0.6c-0.5,0.1-0.6,0.6-0.7,1c0.6,0.1,1.1,0.1,1.7,0.2c0,0.1,0,0.1,0.1,0.2
		c-0.9,0.3-1.9,0.8-2.8,0.9c-1.3,0.1-2.3,0.6-3.2,1.5c-0.3,0.3-0.6,0.6-1,0.7c-1.6,0.7-2.5,1.8-2.9,3.5C77.6,32.4,77.1,32.8,76.8,33
		z"/>
	<path class="st1" d="M164.9,90.8c-0.1,0.1-0.3,0.3-0.5,0.5c-0.1,0-0.2,0-0.2-0.1c-1.3-1.7-2.7-2-4.7-1.1c-1.2,0.5-2.4,1-3.6,1.4
		c-0.6,0.2-1.3-0.2-1.3-0.7c0-1.7-0.5-3.2-1.3-4.8c0.3,0.1,0.4,0.2,0.7,0.3c-0.1-0.5-0.1-0.8-0.3-1c-0.5-0.7-0.2-1.3,0.4-1.7
		c0.7-0.4,1.4-0.7,2.1-1.1c0.8-0.4,1.6-0.8,1.5-2c0.2,0.1,0.4,0.2,0.5,0.2c0.4-0.6,0.9-1.2,1.2-1.6c0.7,0.2,1.4,0.4,2,0.7
		c0.1-2.1,1.4-2.8,3.1-2c-0.5,2-0.2,2.5,2,3.6c0.4-1.3,0.8-2.7,1.3-4.2c0.5,1.4,0.9,2.6,1.4,3.7c0.6,1.6,1.8,2.9,3,4.1
		c0.2,0.3,0.5,0.6,0.6,0.9c0.2,2.5-0.7,4.7-1.6,7c-0.1,0.4-0.8,0.5-1.2,0.8c-0.4,0.4-0.8,0.4-1.2,0c-0.1-0.1-0.2-0.1-0.3-0.1
		c-1.8,0.6-2.2-0.9-2.8-2C165.6,91.5,165.3,91.2,164.9,90.8z"/>
	<path class="st1" d="M55.4,19c0.2,0,0.4,0,0.7,0c-0.1-0.2-0.2-0.4-0.4-0.7c0.3-0.2,0.6-0.3,0.9-0.5c-0.5-0.4-0.9-0.5-1.5-0.1
		c-0.7,0.5-1.3,0.3-1.8-0.5c0.2-0.1,0.4-0.2,0.6-0.4c-0.1-0.1-0.1-0.2-0.2-0.2c-0.4-0.1-0.8-0.2-1.1-0.3c-0.4-0.2-0.5-0.5-0.1-0.8
		c0.3-0.2,0.9-0.1,0.8-0.7c0,0,0.2,0,0.3,0c0.5,0,2.1,0.9,2.3,1.3c0.6,1.4,2.1,1.6,3,0.9c-0.4-0.1-0.8-0.2-1.2-0.4
		c-0.4-0.2-0.7-0.4-1-0.6c0-0.1,0-0.2,0-0.3c0.8-0.1,1.6-0.1,2.4-0.2c0-0.1,0-0.2,0-0.2c-0.1-0.1-0.3-0.1-0.4-0.2
		c-1-0.1-2-0.1-3-0.3c-0.4-0.1-0.8-0.6-1.2-1c1.2-0.3,2.4-0.5,3.5-0.8c0.1,0,0.2-0.1,0.2-0.1c0.6-1.6,2.1-0.9,3.2-1.1
		c0.9-0.1,1.9,0,2.8,0.1c0.5,0.1,1,0.3,1.4,0.5c0.3,0.1,0.6,0,1,0.1c0.5,0.1,1.1,0.2,1.6,0.3c0,0.1,0,0.2,0,0.3
		c-0.6,0.3-1.1,0.6-1.7,0.9c0.1,0.1,0.1,0.1,0.2,0.2c-0.2,0.2-0.3,0.5-0.5,0.7c-0.8,0.5-1.6,1-2.4,1.4c-0.3,0.1-0.6,0.1-0.9,0.1
		c-0.3,0.1-0.9,0.3-0.9,0.5c-0.1,1.4-1.2,1.4-2.1,1.7c-0.1,0-0.1,0.1-0.3,0.2c0.4,0.1,0.6,0.2,1.2,0.3c-1.9,1-3.6,0.1-5.3,0.1
		C55.4,19.3,55.4,19.2,55.4,19z"/>
	<path class="st1" d="M57.2,24.1c0.1-0.9,0-2.1,1.5-1.9c0,0.8,0.3,1.3,1.1,1.3c0.2,0,0.5,0,0.7-0.2c0.6-0.5,1.2-0.4,1.7,0.2
		c0.5,0.6,1,0.7,1.8,0.4c-0.1,0.2-0.2,0.4-0.2,0.5c0.7,0.3,1.4,0.5,2.2,0.8c-0.6,0.9-0.3,1.2,0.5,1.4c0.8,0.2,1.4,0.7,2.3,1.1
		c-0.3,0.2-0.5,0.4-0.6,0.5c-0.3,0.9-0.7,0.6-1.1,0.2c-0.4-0.3-0.8-0.5-1.2,0.1c0.3,0.4,0.6,0.8,0.9,1.3c0.3,0.4,0.7,0.9,0,1.3
		c-0.1,0.1,0,0.4,0,0.7c-1.2-0.5-2.5-0.8-3.5-1.7c-0.4-0.3-1.1-0.3-1.7-0.3c-0.2,0-0.5,0-0.9,0c0.6-0.8,1.4-0.6,2.1-0.7
		c-0.2-0.8,0.4-1.1,1.2-1c-0.4-0.7-0.8-1.3-1.2-1.9c-0.1-0.2-0.4-0.2-0.6-0.3c-1.8-0.9-3.8-0.7-5.7-0.9c-0.8-0.1-1.1-0.6-1.2-1.2
		c-0.1-0.4,0.2-0.9,0.5-1.2c0.3-0.2,0.9-0.4,1.1-0.2c0.3,0.2,0.3,0.7,0.5,1.1c0,0.1-0.1,0.3-0.1,0.5C57.1,24,57.1,24.1,57.2,24.1z"
		/>
	<path class="st1" d="M38.4,23.4c0.2-0.4,0.3-0.7,0.4-1.1c0-0.1,0-0.3,0-0.4c0.8-1,1.7-0.2,2.6-0.3c0.5,0,0.9,0.3,0.7,1
		c0.3-0.1,0.5-0.2,0.8-0.3c0,0.2,0.1,0.5,0.1,0.8c1.2-0.6,1.8-0.5,2.9,0.4c0.4-0.5,0.9-1,1.2-1.5c0.1,0.6,0.1,1.3,0.4,1.8
		c0.3,0.5,0.8,0.8,1.3,1.1c0,0.1-0.2,0.5-0.2,0.6c-1.1,0.1-2.2,0-3.1,0.3c-1.3,0.4-2.4,0.1-3.5-0.8c0.6-0.1,1.2-0.2,1.9-0.3
		c0-0.1,0-0.2,0-0.3c-0.4-0.1-0.8-0.1-1.1-0.1c-1.3,0-1.5-0.3-1.4-1.5C40.4,23.1,39.6,25,38.4,23.4z"/>
	<path class="st1" d="M155.4,67.4c0.2,0.2,0.5,0.4,0.8,0.7c-0.3,0.3-0.5,0.6-0.8,1c0.8,0.6,0.8,1.2,0.2,2c-0.3,0.5-0.4,1.1-0.6,1.6
		c-0.1,0.2-0.4,0.5-0.6,0.6c-1.3,0.3-3-1.2-3-2.5c0-0.2,0.1-0.4,0.2-0.4C152.9,69.4,154.1,68.4,155.4,67.4z"/>
	<path class="st1" d="M171.1,77c-0.4-0.3-0.9-0.6-1.3-1c-0.4-0.4-0.9-0.7-1.3-0.3c-0.6,0.7-1.1,0.4-1.7,0.1
		c-0.4-0.2-0.8-0.3-1.2-0.5c0.5-1.1-0.6-2.2-2.6-2.5c0.1-0.2,0.2-0.5,0.3-0.7c-0.3-0.2-0.6-0.4-0.9-0.6c0.6,0,1.2-0.1,1.4,0.7
		c0.1,0.5,0.5,0.8,1.1,0.3c0.2-0.2,0.7-0.3,1-0.2c1,0.4,2,0.9,3,1.4c0.7,0.4,1.3,0.7,1.5,1.7c0.1,0.5,0.6,0.9,0.9,1.3
		C171.2,76.9,171.2,76.9,171.1,77z"/>
	<path class="st1" d="M122.6,78.5c0,0.7,0.1,1.4,0,2.1c-0.2,1.4-0.6,2.8-0.9,4.2c-0.1,0.6-0.5,1.1-1.1,0.9c-0.3-0.1-0.6-0.6-0.7-1
		c-0.1-0.5,0-1,0-1.5c0-0.5,0.2-0.9,0.2-1.4c0-0.8,0.2-1.3,0.9-1.8C121.5,79.7,122,79.1,122.6,78.5z"/>
	<path class="st1" d="M164.3,51.2c-0.1-0.2-0.2-0.4-0.4-0.7c-0.1,0.1-0.1,0.1-0.2,0.2c0,0.2,0.2,0.5,0.1,0.6c-0.6,0.5-1.2,1-1.9,1.5
		c-0.2-0.6-0.4-1.3-0.6-1.9c0.3-0.2,0.7-0.3,1.1-0.5c0.4-0.2,0.8-0.3,1.2-0.5c0.4-0.2,0.7-0.4,1-0.6c0.1-0.1,0.2-0.3,0.3-0.3
		c0.8,0.3,0.8-0.2,0.6-0.8c0.8,0.2,0.8-0.3,0.9-0.8c0.1-0.3,0.4-0.6,0.6-0.8c0.2,0.3,0.6,0.7,0.5,1c-0.2,0.9-0.4,1.9-0.7,2.8
		c-0.1,0.2-0.4,0.3-0.6,0.4C165.6,50.9,165,51,164.3,51.2z"/>
	<path class="st1" d="M107.8,16.7c0.5,0.5,0.9,0.8,1.5,1.3c-1.9-0.8-1.6,1.1-2.5,1.6c-0.2-0.2-0.5-0.3-0.8-0.6
		c0.2-0.2,0.3-0.4,0.6-0.6c-0.2-0.1-0.4-0.2-0.6-0.3c0.3-0.2,0.5-0.4,0.8-0.6c0,0,0-0.1,0-0.1c-0.8,0.1-1.7,0.2-2.6,0.3
		c0.3-0.5,0.4-0.9,0.6-1.2c-0.1-0.1-0.2-0.1-0.2-0.2c0.3-0.1,0.5-0.1,0.9-0.2c-0.1,0.2-0.2,0.4-0.3,0.6c0.8,0.5,1.6-1.3,2.3,0.5
		c0.3-0.7,0.4-1,0.6-1.5c0.3,0.1,0.8,0.3,1.3,0.5c0.5-1.1,1.4-0.3,2.2-0.3C110.6,17.5,109.1,16.2,107.8,16.7z"/>
	<path class="st1" d="M96.1,40.1c0.4-0.3,0.7-0.5,1-0.7c-0.3-0.2-0.6-0.3-0.8-0.4c0-0.1,0-0.2,0.1-0.3c0.8-0.8,0.9-1.3-0.2-2
		c-0.5-0.3-0.4-1.3,0-1.9c0.2-0.3,0.5-0.5,0.8-0.7c-0.1,0.3-0.3,0.6-0.5,1.1c0.3,0.1,0.5,0.1,0.8,0.2c0,0,0,0.1,0,0.1
		c-0.7,1.4,1.2,1.7,1.2,2.8c0,0.1,0.1,0.3,0.2,0.4c0.1,0.2,0.4,0.6,0.4,0.7c-0.3,0.3-0.6,0.6-1,0.7C97.5,40,96.8,40,96.1,40.1z"/>
	<path class="st1" d="M145.3,68.1c0.4,0.3,0.8,0.5,1.2,0.9c0.8,0.8,1.4,1.8,2.2,2.6c0.3,0.4,0.8,0.6,1.3,1c-0.1,0.4-0.3,0.9-0.5,1.5
		c-1.3-0.6-1.7-1.8-2.4-2.8c-0.6-1-1.3-2-1.9-3.1C145.3,68.2,145.3,68.2,145.3,68.1z"/>
	<path class="st1" d="M125.9,20.7c2.1-0.4,4-0.9,5.9-1.3c0,0.1,0,0.1,0.1,0.2c-0.9,0.3-1.9,0.7-2.8,0.9c-1.6,0.3-2.5,1.3-3.3,2.5
		c-0.2,0.3,0.1,0.9,0.1,1.5c-0.8,0.5-1-0.8-1.9-1.1c0.4-0.3,0.9-0.6,1.3-0.9c0,0,0.1,0,0.2-0.1C124.7,21.6,126.3,21.5,125.9,20.7z"
		/>
	<path class="st1" d="M87.5,29.4c0.9-0.4,1.8-0.7,2.6-1c0.8-0.3,1.4,0,1.7,0.8C90.4,30.5,88.9,30.6,87.5,29.4z"/>
	<path class="st1" d="M51.8,19.4c1,0.2,2-0.1,2.7,0.9c0.2,0.3,1,0.4,1.5,0.4c1.2,0,2.5-0.1,3.7-0.2c0,0.1,0.1,0.1,0.1,0.2
		c-0.3,0.2-0.6,0.5-0.9,0.5c-1.5,0-3.1-0.1-4.6-0.2c-0.1,0-0.3,0-0.3-0.1C53.6,19.9,52.7,19.7,51.8,19.4z"/>
	<path class="st1" d="M179.5,99c0.3-0.4,0.6-0.9,1-1.3c0.4-0.6,0.9-1.1,1.4-1.7c0.2-0.2,0.5-0.2,0.8-0.3c0,0.3,0,0.6-0.1,0.8
		c-0.4,0.8-0.8,1.5-1.1,2.3c-0.2,0.5-0.5,0.7-1,0.5C180.1,99.1,179.8,99.1,179.5,99z"/>
	<path class="st1" d="M71.4,40.4c-0.1,0.2-0.2,0.4-0.3,0.6c1.3-0.4,1.2,0.8,1.7,1.4c-0.3,0.1-0.7,0.2-1.1,0.3c0-0.2-0.1-0.5-0.1-0.8
		c-0.2,0-0.5,0.1-0.7,0.1c-0.4,0-0.7-0.1-1.1-0.2c0.2-0.3,0.2-0.7,0.5-1c0.3-0.3,0.6-0.5,1-0.7C71.3,40.3,71.3,40.3,71.4,40.4z"/>
	<path class="st1" d="M62.2,59.4c-0.6,0.3-1,0.5-1.6-0.1c-0.5-0.6-1.4-0.8-2.3-1.3c0.1,0.4,0.1,0.6,0.2,0.8
		c-0.3-0.3-0.6-0.5-0.9-0.7C58.6,57.3,60.8,57.9,62.2,59.4z"/>
	<path class="st1" d="M167.3,43.6c0.6,0.3,1.2,0.6,1.8,0.9c-0.2,1.1-1.5,0.9-2.2,1.6c-0.4-0.4-0.8-0.8-0.1-1.3
		C167.2,44.6,167.2,44,167.3,43.6z"/>
	<path class="st1" d="M157.9,74.3c-0.2-0.6-0.4-1-0.6-1.5c-0.1,0-0.2,0-0.2,0c0,0.6,0,1.2,0,1.7c-0.1,0-0.2,0-0.2,0
		c-0.4-1.2-0.7-2.4,0-3.6c0.3-0.4,1.2-0.4,1.9-0.4c-0.6,0.4-1.5-0.1-1.8,1c0.5,0.1,0.9,0.2,1.5,0.3c-0.4,0.1-0.7,0.2-1,0.2
		C157.4,72.8,158.6,73.2,157.9,74.3z"/>
	<path class="st1" d="M45.7,19.6c0.4,0.4,0.8,0.7,1.2,1c-1,0.3-2,0.5-3.1,0.8c0.1-0.9-0.2-1-1.4-0.7c-0.3-0.6-0.2-0.9,0.6-0.8
		c0.4,0.1,0.8,0.2,1.2,0.4C45.3,20.8,45.5,20.7,45.7,19.6z"/>
	<path class="st1" d="M184.7,93.9c-0.3,0.4-0.7,1.1-1.1,1.7c-0.3-0.4-0.5-0.7-0.8-1.2c0.7-0.9,0-1.7-0.4-2.4
		C183.2,92.5,183.9,93.2,184.7,93.9z"/>
	<path class="st1" d="M146.9,15.8c0,0.7-0.1,1.2-0.1,1.7c-1.1-0.4-2.1-0.7-3.2-1c1.3-0.9,1.7-0.9,2.4,0
		C146.2,16.4,146.4,16.2,146.9,15.8z"/>
	<path class="st1" d="M49.4,23.1c0.6-0.5,1.1-1,1.7-1.4c0.2,0.7,0.4,1.1,0.5,1.6c0,0.2,0,0.5,0,0.5c-0.4,0.1-0.8,0.2-1.1,0.2
		C50.1,23.7,49.8,23.4,49.4,23.1z"/>
	<path class="st1" d="M168,37.4c0.1,0.6,0.1,1.3,0.2,1.9c0.1,0.6,0.3,1.2,0.4,1.7c-0.7,0.2-0.8,0.4-0.3,1.8
		c-0.4-0.1-0.4-0.1-0.5-1.5c-0.1-0.7-0.3-1.4-0.2-2.1c0-0.6,0.2-1.2,0.3-1.9C167.9,37.3,167.9,37.3,168,37.4z"/>
	<path class="st1" d="M93.7,39c0.3-0.7,0.6-1.4,0.9-2c0.1-0.1,0.4-0.2,0.5-0.1c0.2,0.1,0.5,0.4,0.5,0.6c-0.2,0.5-0.4,0.9-0.7,1.3
		c-0.2,0.2-0.6,0.3-0.9,0.4C93.8,39.1,93.7,39.1,93.7,39z"/>
	<path class="st1" d="M157.4,61.9c0.6,0.7,1.2,1.3,1.8,2c0,0.1-0.1,0.1-0.1,0.2c-0.2-0.1-0.4-0.1-0.5-0.3c-0.3-0.3-0.6-0.7-1-0.9
		c-0.7-0.4-1-1.8-0.5-2.4c0.1-0.1,0.5-0.2,0.5-0.1c0.1,0.1,0.3,0.4,0.2,0.6C157.9,61.4,157.6,61.6,157.4,61.9z"/>
	<path class="st1" d="M122.3,15.3c1.4-0.7,2.5,0.3,3.6,0.1c0,0.1,0,0.2,0,0.3c-0.4,0.1-0.9,0.3-1.3,0.2c-0.4,0-0.8-0.3-1.2-0.4
		c0,0.1-0.1,0.2-0.1,0.3c0.2,0.1,0.3,0.2,0.5,0.4c-0.1,0.1-0.1,0.2-0.2,0.2C123.2,16.1,122.9,15.7,122.3,15.3z"/>
	<path class="st1" d="M149.9,74.7c1.3,0.4,2.8-0.1,3.8,1.2C152.5,75.4,151,75.7,149.9,74.7z"/>
	<path class="st1" d="M64.7,103.6c0.4,0.4,0.8,0.9,1.3,1.4c-0.9,0.6-1.5-0.2-2.1-0.1C64.2,104.5,64.4,104.1,64.7,103.6z"/>
	<path class="st1" d="M157.9,66.6c0.6-0.2,1.1-0.4,1.7-0.7c0.4,1,0.3,1.2-0.5,1.6c-0.3-0.3-0.3-1.2-1.2-0.5
		C157.9,66.8,157.9,66.7,157.9,66.6z"/>
	<path class="st1" d="M54.3,21.9c-0.6,0.4-1.1,0.8-1.7,1.2c0,0.1,0,0.2,0.1,0.3c0-0.4-0.2-1.1,0-1.3c0.4-0.3,1-0.3,1.5-0.5
		C54.2,21.7,54.2,21.8,54.3,21.9z"/>
	<path class="st1" d="M149.5,17.5c-0.8,0.2-1.5,0.4-2.3,0.5C147.6,16.8,148.7,16.3,149.5,17.5z"/>
	<path class="st1" d="M169.1,95.4c0.5,0.2,0.9,0.3,1.4,0.5c-0.2,0.3-0.4,0.7-0.6,1c-0.4-0.3-0.7-0.7-1.1-1
		C168.9,95.7,169,95.6,169.1,95.4z"/>
	<path class="st1" d="M167.6,20.3c0,0.1,0.1,0.3,0.1,0.5c-0.6,0-1.2,0.1-1.8,0.1c-0.1,0-0.2-0.4-0.3-0.6c0.2-0.1,0.4-0.3,0.6-0.2
		C166.7,20.1,167.1,20.2,167.6,20.3z"/>
	<path class="st1" d="M143.8,15.5c1-1.1,1.3-1.1,2,0C145.1,15.5,144.4,15.5,143.8,15.5z"/>
	<path class="st1" d="M50.1,18.3c-1-0.5-1.8-1-2.7-1.4C48.7,16.6,49.6,17.1,50.1,18.3z"/>
	<path class="st1" d="M49,20c0.7-0.7,1.2-0.5,1.6,0c0.1,0.1,0,0.4-0.1,0.6C50,20.5,49.5,20.3,49,20z"/>
	<path class="st1" d="M39.4,19.9c0.8-0.4,1.6-0.8,2.4-1.2c0.1,0.1,0.1,0.2,0.2,0.3c-0.8,0.4-1.6,0.9-2.3,1.3
		C39.6,20.2,39.5,20,39.4,19.9z"/>
	<path class="st1" d="M62.7,60.6c0.7-0.9,1.2-0.9,2.4-0.2C64.3,60.4,63.6,60.5,62.7,60.6z"/>
	<path class="st1" d="M158.4,76.7c0.5-0.4,1-0.8,1.6-1.2C160,76.4,159.5,76.8,158.4,76.7z"/>
	<path class="st1" d="M122.2,16.2c-0.5-0.2-0.9-0.5-1.4-0.7c0-0.1,0-0.2,0-0.3c0.4-0.1,0.8-0.3,1.2-0.4c0.1,0,0.1,0.1,0.2,0.1
		c-0.5,0.5-0.5,0.9,0.3,1.1C122.4,16,122.3,16.1,122.2,16.2z"/>
	<path class="st1" d="M137.8,66c0,0.4,0.1,0.8,0.1,1.3c0,0-0.4,0.1-0.5,0c-0.1-0.4-0.1-0.8-0.2-1.2C137.4,66,137.6,66,137.8,66z"/>
	<path class="st1" d="M172.4,73.5c-0.3,0.3-0.5,0.6-0.8,0.9c-0.1,0.1-0.3,0-0.5,0c0.1-0.2,0.1-0.4,0.2-0.5c0.3-0.2,0.7-0.4,1-0.5
		C172.3,73.4,172.4,73.5,172.4,73.5z"/>
</g>
</svg>
