<?xml version="1.0" encoding="utf-8"?>
<!-- Generator: Adobe Illustrator 23.0.1, SVG Export Plug-In . SVG Version: 6.00 Build 0)  -->
<svg version="1.1" id="Capa_1" xmlns="http://www.w3.org/2000/svg" xmlns:xlink="http://www.w3.org/1999/xlink" x="0px" y="0px"
	 viewBox="0 0 208 117" style="enable-background:new 0 0 208 117;" xml:space="preserve">
<style type="text/css">
	.st0{fill:#434850;}
	.st1{fill:#FFFFFF;}
</style>
<g>
	<polygon class="st0" points="147.4,63.9 158.9,86.9 131.5,100.5 104,86.7 76.6,100.5 49.1,86.9 69.4,45.6 83.6,59.1 104,45.6 
		124.4,59.3 126.3,57.8 129.7,63.9 128.6,65 134,91.8 149.5,83.7 143.4,71 	"/>
	<polygon class="st1" points="79.2,65.3 71.5,57.4 58.6,83.6 73.9,91.5 	"/>
	<polygon class="st1" points="86.2,65.9 100.5,56.3 100.5,80.8 81.4,90.4 	"/>
	<polygon class="st1" points="107.4,56.3 107.4,80.9 126.4,90.4 121.6,65.7 	"/>
	<g>
		<path class="st0" d="M138.6,16.5c-9.6,0-17.4,7.8-17.4,17.4c0,13,17.4,32.2,17.4,32.2S156,46.9,156,33.9
			C156,24.3,148.2,16.5,138.6,16.5z M138.6,40.1c-3.4,0-6.2-2.8-6.2-6.2s2.8-6.2,6.2-6.2c3.4,0,6.2,2.8,6.2,6.2
			S142.1,40.1,138.6,40.1z"/>
	</g>
</g>
</svg>
