<svg xmlns="http://www.w3.org/2000/svg" width="64.001" height="64" viewBox="0 0 64.001 64"><defs><style>.a{fill:#f1f1f1;opacity:0;}.b{fill:#5b646d;}.c{fill:#fff;}</style></defs><g transform="translate(-1595 -497)"><rect class="a" width="64" height="64" transform="translate(1595 497)"/><g transform="translate(402.005 143.116)"><path class="b" d="M1250.273,400.593l6.722,13.419-15.961,7.919-16.039-8.029-15.968,8.029-16.032-7.919,11.853-24.088,8.277,7.89,11.87-7.89,11.86,8.029,1.139-.922,1.968,3.562-.626.681,3.122,15.567,9.025-4.7-3.52-7.369Z" transform="translate(0 -12.121)"/><path class="c" d="M1214.528,406.343l-4.51-4.62-7.534,15.289,8.909,4.62Z" transform="translate(-3.961 -17.046)"/><path class="c" d="M1228.133,406.264l8.3-5.579v14.244l-11.109,5.61Z" transform="translate(-13.496 -16.613)"/><path class="c" d="M1251.287,400.685v14.3l11.109,5.555-2.8-14.409Z" transform="translate(-24.331 -16.613)"/><g transform="translate(1235.063 360.884)"><path class="b" d="M1275.319,360.884A10.109,10.109,0,0,0,1265.2,371c0,7.588,10.117,18.789,10.117,18.789s10.117-11.2,10.117-18.789A10.11,10.11,0,0,0,1275.319,360.884Zm0,13.73a3.613,3.613,0,1,1,3.613-3.613A3.614,3.614,0,0,1,1275.319,374.614Z" transform="translate(-1265.202 -360.884)"/></g></g></g></svg>