<?xml version="1.0" encoding="utf-8"?>
<!-- Generator: Adobe Illustrator 23.0.1, SVG Export Plug-In . SVG Version: 6.00 Build 0)  -->
<svg version="1.1" id="Capa_1" xmlns="http://www.w3.org/2000/svg" xmlns:xlink="http://www.w3.org/1999/xlink" x="0px" y="0px"
	 viewBox="0 0 208 117" style="enable-background:new 0 0 208 117;" xml:space="preserve">
<style type="text/css">
	.st0{fill:#FFFFFF;}
	.st1{fill:#434850;}
</style>
<g>
	<path class="st0" d="M203.5,115.5H4.5c-1.7,0-3-1.3-3-3V4.5c0-1.7,1.3-3,3-3h199c1.7,0,3,1.3,3,3v108
		C206.5,114.2,205.2,115.5,203.5,115.5z"/>
	<g>
		<path class="st1" d="M106.9,27c-1.1-5.6-6-9.8-11.9-9.8c-4.7,0-8.8,2.7-10.8,6.6c-4.9,0.5-8.7,4.7-8.7,9.7c0,5.4,4.4,9.7,9.7,9.7
			h21.1c4.5,0,8.1-3.6,8.1-8.1C114.4,30.7,111.1,27.3,106.9,27z M106.3,39.9H85.2c-3.6,0-6.5-2.9-6.5-6.5c0-3.6,2.9-6.5,6.5-6.5h1.2
			c1.1-3.8,4.5-6.5,8.6-6.5c4.9,0,8.9,4,8.9,8.9v0.8h2.4c2.7,0,4.9,2.2,4.9,4.9C111.2,37.7,109,39.9,106.3,39.9z"/>
		<path class="st1" d="M143.5,32.9h-18.3c-1.7,0-3.1,1.4-3.1,3.1v21.4h3.1V35.9h18.3V32.9z M142,39l9.2,9.2v15.3
			c0,1.7-1.4,3.1-3.1,3.1h-16.8c-1.7,0-3-1.4-3-3.1l0-21.4c0-1.7,1.4-3.1,3-3.1H142z M140.5,49.7h8.4l-8.4-8.4V49.7z"/>
		<path class="st1" d="M129.9,73.1h-26.7c-1.8,0-3.3,1.5-3.3,3.3l0,20c0,1.8,1.5,3.3,3.3,3.3h26.7c1.8,0,3.3-1.5,3.3-3.3v-20
			C133.2,74.6,131.7,73.1,129.9,73.1z M129.9,96.5h-26.7V79.8l13.3,8.3l13.3-8.3V96.5z M116.5,84.8l-13.3-8.3h26.7L116.5,84.8z"/>
		<path class="st1" d="M81.7,71h-1.6l-0.6-0.5c2-2.3,3.2-5.3,3.2-8.5c0-7.2-5.9-13.1-13.1-13.1c-7.2,0-13.1,5.9-13.1,13.1
			S62.4,75,69.7,75c3.2,0,6.2-1.2,8.5-3.2l0.5,0.6V74l10.1,10l3-3L81.7,71z M69.7,71c-5,0-9.1-4-9.1-9.1s4-9.1,9.1-9.1
			c5,0,9.1,4,9.1,9.1S74.7,71,69.7,71z"/>
	</g>
</g>
</svg>
