<?xml version="1.0" encoding="utf-8"?>
<!-- Generator: Adobe Illustrator 23.0.1, SVG Export Plug-In . SVG Version: 6.00 Build 0)  -->
<svg version="1.1" id="Capa_1" xmlns="http://www.w3.org/2000/svg" xmlns:xlink="http://www.w3.org/1999/xlink" x="0px" y="0px"
	 viewBox="0 0 208 117" style="enable-background:new 0 0 208 117;" xml:space="preserve">
<style type="text/css">
	.st0{fill:#434850;}
</style>
<g>
	<path class="st0" d="M107.4,22.8c-1.2-6.3-6.8-11.1-13.5-11.1c-5.3,0-9.9,3-12.2,7.4c-5.5,0.6-9.8,5.3-9.8,11c0,6.1,4.9,11,11,11
		h23.9c5.1,0,9.2-4.1,9.2-9.2C116,27.1,112.2,23.2,107.4,22.8z M106.8,37.5H82.9c-4.1,0-7.4-3.3-7.4-7.4s3.3-7.4,7.4-7.4h1.3
		c1.2-4.2,5.1-7.4,9.7-7.4c5.6,0,10.1,4.5,10.1,10.1v0.9h2.8c3.1,0,5.5,2.5,5.5,5.5S109.8,37.5,106.8,37.5z"/>
	<path class="st0" d="M148.8,29.5h-20.7c-1.9,0-3.5,1.6-3.5,3.5v24.2h3.5V33h20.7V29.5z M147.1,36.4l10.4,10.4v17.3
		c0,1.9-1.6,3.5-3.5,3.5h-19c-1.9,0-3.4-1.6-3.4-3.5l0-24.2c0-1.9,1.5-3.5,3.4-3.5H147.1z M145.4,48.5h9.5l-9.5-9.5V48.5z"/>
	<path class="st0" d="M133.4,75.1h-30.2c-2.1,0-3.8,1.7-3.8,3.8l0,22.6c0,2.1,1.7,3.8,3.8,3.8h30.2c2.1,0,3.8-1.7,3.8-3.8V78.8
		C137.2,76.8,135.5,75.1,133.4,75.1z M133.4,101.5h-30.2V82.6l15.1,9.4l15.1-9.4V101.5z M118.3,88.3l-15.1-9.4h30.2L118.3,88.3z"/>
	<path class="st0" d="M79,72.7h-1.8L76.5,72c2.2-2.6,3.6-6,3.6-9.6c0-8.2-6.6-14.8-14.8-14.8s-14.8,6.6-14.8,14.8
		s6.6,14.8,14.8,14.8c3.7,0,7-1.3,9.6-3.6l0.6,0.6v1.8l11.4,11.4l3.4-3.4L79,72.7z M65.3,72.7c-5.7,0-10.2-4.6-10.2-10.2
		s4.6-10.2,10.2-10.2c5.7,0,10.2,4.6,10.2,10.2S71,72.7,65.3,72.7z"/>
</g>
</svg>
