<svg xmlns="http://www.w3.org/2000/svg" width="64" height="64" viewBox="0 0 64 64"><defs><style>.a{fill:#f1f1f1;opacity:0;}.b{fill:#5b646d;}</style></defs><g transform="translate(-1597 -233)"><rect class="a" width="64" height="64" transform="translate(1597 233)"/><g transform="translate(913.251 -115.287)"><path class="b" d="M726.366,359.054a8.239,8.239,0,0,0-15.395-2.2,6.6,6.6,0,0,0,.715,13.152h14.3a5.483,5.483,0,0,0,.385-10.953Zm-.385,8.753h-14.3a4.4,4.4,0,1,1,0-8.8h.781a6.047,6.047,0,0,1,11.865,1.65v.55h1.65a3.3,3.3,0,0,1,0,6.6Z" transform="translate(-8.57 0)"/><path class="b" d="M772.365,370.215h-12.4a2.072,2.072,0,0,0-2.066,2.066v14.464h2.066V372.281h12.4Zm-1.033,4.132,6.2,6.2v10.332a2.072,2.072,0,0,1-2.066,2.066H764.09a2.063,2.063,0,0,1-2.056-2.066l.01-14.464a2.064,2.064,0,0,1,2.056-2.066Zm-1.034,7.232h5.682L770.3,375.9Z" transform="translate(-29.782 -7.15)"/><path class="b" d="M752.983,415.743H734.914A2.255,2.255,0,0,0,732.667,418l-.011,13.551a2.265,2.265,0,0,0,2.258,2.258h18.068a2.265,2.265,0,0,0,2.258-2.258V418A2.265,2.265,0,0,0,752.983,415.743Zm0,15.81H734.914V420.26l9.034,5.646,9.034-5.646Zm-9.034-7.905L734.914,418h18.068Z" transform="translate(-19.642 -25.436)"/><path class="b" d="M700.775,403.276H699.7l-.381-.368a8.869,8.869,0,1,0-.954.954l.368.381v1.076l6.81,6.8,2.03-2.029Zm-8.173,0a6.129,6.129,0,1,1,6.13-6.129A6.121,6.121,0,0,1,692.6,403.276Z" transform="translate(0 -14.411)"/></g></g></svg>