<?xml version="1.0" encoding="utf-8"?>
<!-- Generator: Adobe Illustrator 23.0.1, SVG Export Plug-In . SVG Version: 6.00 Build 0)  -->
<svg version="1.1" id="Capa_1" xmlns="http://www.w3.org/2000/svg" xmlns:xlink="http://www.w3.org/1999/xlink" x="0px" y="0px"
	 viewBox="0 0 208 117" style="enable-background:new 0 0 208 117;" xml:space="preserve">
<style type="text/css">
	.st0{fill:#434850;}
</style>
<g>
	<g>
		<g>
			<g>
				<path class="st0" d="M109.5,40.8c0-0.2,0-0.3,0-0.5s0-0.3,0-0.5l1.1-0.9c0.1-0.1,0.1-0.2,0.1-0.3l-1-1.8
					c-0.1-0.1-0.2-0.2-0.3-0.1l-1.3,0.5c-0.3-0.2-0.6-0.4-0.9-0.5l-0.2-1.4c0-0.1-0.1-0.2-0.3-0.2h-2.1c-0.1,0-0.2,0.1-0.3,0.2
					l-0.2,1.4c-0.3,0.1-0.6,0.3-0.9,0.5l-1.3-0.5c-0.1,0-0.3,0-0.3,0.1l-1,1.8c-0.1,0.1,0,0.3,0.1,0.3l1.1,0.9c0,0.2,0,0.3,0,0.5
					c0,0.2,0,0.3,0,0.5l-1.1,0.9c-0.1,0.1-0.1,0.2-0.1,0.3l1,1.8c0.1,0.1,0.2,0.2,0.3,0.1l1.3-0.5c0.3,0.2,0.6,0.4,0.9,0.5l0.2,1.4
					c0,0.1,0.1,0.2,0.3,0.2h2.1c0.1,0,0.2-0.1,0.3-0.2l0.2-1.4c0.3-0.1,0.6-0.3,0.9-0.5l1.3,0.5c0.1,0,0.3,0,0.3-0.1l1-1.8
					c0.1-0.1,0-0.3-0.1-0.3L109.5,40.8z M105.6,42.3c-1.1,0-2-0.9-2-2s0.9-2,2-2s2,0.9,2,2S106.7,42.3,105.6,42.3z"/>
			</g>
			<path class="st0" d="M87.8,44.3c0.2-0.2,0.3-0.4,0.5-0.7c0.1-0.2,0.3-0.5,0.4-0.7l2.2-0.2c0.2,0,0.4-0.2,0.4-0.4l0.2-3.3
				c0-0.2-0.1-0.4-0.3-0.4l-2.2-0.4c-0.2-0.5-0.4-1-0.7-1.4l0.9-2c0.1-0.2,0-0.4-0.2-0.5l-2.8-1.8c-0.2-0.1-0.4-0.1-0.5,0.1
				l-1.4,1.7c-0.5-0.1-1.1-0.1-1.6-0.1l-1.3-1.8c-0.1-0.2-0.3-0.2-0.5-0.1l-2.9,1.5c-0.2,0.1-0.3,0.3-0.2,0.5l0.7,2.1
				c-0.2,0.2-0.3,0.4-0.5,0.6c-0.1,0.2-0.3,0.5-0.4,0.7l-2.2,0.2c-0.2,0-0.4,0.2-0.4,0.4l-0.2,3.3c0,0.2,0.1,0.4,0.3,0.4l2.2,0.4
				c0.2,0.5,0.4,1,0.7,1.4l-0.9,2c-0.1,0.2,0,0.4,0.2,0.5l2.8,1.8c0.2,0.1,0.4,0.1,0.5-0.1l1.4-1.7c0.5,0.1,1.1,0.1,1.6,0.1l1.3,1.8
				c0.1,0.2,0.3,0.2,0.5,0.1l2.9-1.5c0.2-0.1,0.3-0.3,0.2-0.5L87.8,44.3z M81.4,42.9C80,42,79.6,40,80.5,38.6
				c0.9-1.4,2.8-1.9,4.3-0.9c1.4,0.9,1.8,2.9,0.9,4.3S82.8,43.8,81.4,42.9z"/>
			<path class="st0" d="M101.6,62c0.2-0.2,0.4-0.5,0.5-0.7s0.3-0.5,0.4-0.8l2.4-0.2c0.2,0,0.4-0.2,0.4-0.4l0.2-3.7
				c0-0.2-0.1-0.4-0.4-0.5l-2.4-0.5c-0.2-0.6-0.5-1.1-0.8-1.6l1-2.2c0.1-0.2,0-0.5-0.2-0.6l-3.1-2c-0.2-0.1-0.4-0.1-0.6,0.1
				l-1.6,1.9c-0.6-0.1-1.2-0.1-1.8-0.1l-1.4-2c-0.1-0.2-0.4-0.2-0.6-0.1l-3.2,1.7c-0.2,0.1-0.3,0.3-0.2,0.6l0.8,2.3
				c-0.2,0.2-0.4,0.5-0.5,0.7c-0.2,0.3-0.3,0.5-0.4,0.8l-2.4,0.2c-0.2,0-0.4,0.2-0.4,0.4l-0.2,3.7c0,0.2,0.1,0.4,0.4,0.5l2.4,0.5
				c0.2,0.6,0.5,1.1,0.8,1.6l-1,2.2c-0.1,0.2,0,0.5,0.2,0.6l3.1,2c0.2,0.1,0.4,0.1,0.6-0.1l1.6-1.9c0.6,0.1,1.2,0.1,1.8,0.1l1.4,2
				c0.1,0.2,0.4,0.2,0.6,0.1l3.2-1.7c0.2-0.1,0.3-0.3,0.2-0.6L101.6,62z M94.6,60.5c-1.6-1-2-3.2-1-4.8c1-1.6,3.1-2.1,4.7-1
				c1.6,1,2,3.2,1,4.8C98.3,61,96.2,61.5,94.6,60.5z"/>
			<path class="st0" d="M130.5,53.4c0-0.4,0.1-0.8,0.1-1.2c0-0.4,0-0.8-0.1-1.2l2.5-2c0.2-0.2,0.3-0.5,0.1-0.8l-2.4-4.1
				c-0.1-0.3-0.5-0.4-0.7-0.3l-2.9,1.2c-0.6-0.5-1.3-0.9-2-1.2l-0.4-3.2c0-0.3-0.3-0.5-0.6-0.5h-4.7c-0.3,0-0.5,0.2-0.6,0.5
				l-0.4,3.2c-0.7,0.3-1.4,0.7-2,1.2l-2.9-1.2c-0.3-0.1-0.6,0-0.7,0.3l-2.4,4.1c-0.1,0.3-0.1,0.6,0.1,0.8l2.5,2
				c-0.1,0.4-0.1,0.8-0.1,1.2s0,0.8,0.1,1.2l-2.5,2c-0.2,0.2-0.3,0.5-0.1,0.8l2.4,4.1c0.1,0.3,0.5,0.4,0.7,0.3l2.9-1.2
				c0.6,0.5,1.3,0.9,2,1.2l0.4,3.2c0.1,0.3,0.3,0.5,0.6,0.5h4.7c0.3,0,0.5-0.2,0.6-0.5l0.4-3.2c0.7-0.3,1.4-0.7,2-1.2l2.9,1.2
				c0.3,0.1,0.6,0,0.7-0.3l2.4-4.1c0.1-0.3,0.1-0.6-0.1-0.8L130.5,53.4z M121.7,56.8c-2.4,0-4.4-2-4.4-4.5c0-2.5,2-4.5,4.4-4.5
				c2.4,0,4.4,2,4.4,4.5C126.1,54.7,124.1,56.8,121.7,56.8z"/>
		</g>
	</g>
	<path class="st0" d="M145.7,13.3H64.4c-5,0-9,4.1-9,9v54.2c0,5,4.1,9,9,9H96v9h-9v9h36.1v-9h-9v-9h31.6c5,0,9-4.1,9-9V22.4
		C154.7,17.4,150.6,13.3,145.7,13.3z M145.7,76.6H64.4V22.4h81.3V76.6z"/>
</g>
</svg>
