<svg xmlns="http://www.w3.org/2000/svg" width="64" height="64" viewBox="0 0 64 64"><defs><style>.a{fill:#f1f1f1;opacity:0;}.b{fill:#626262;}</style></defs><g transform="translate(-1220 -233)"><g transform="translate(1088 193)"><rect class="a" width="64" height="64" transform="translate(132 40)"/><g transform="translate(132 43)"><path class="b" d="M234.724,355.884H183.087a5.754,5.754,0,0,0-5.737,5.737v34.425a5.754,5.754,0,0,0,5.737,5.737h20.08v5.737H197.43v5.737h22.95v-5.737h-5.737v-5.737h20.081a5.754,5.754,0,0,0,5.737-5.737V361.621A5.754,5.754,0,0,0,234.724,355.884Zm0,40.162H183.087V361.621h51.636Z" transform="translate(-177.35 -355.884)"/><g transform="translate(12.704 12.021)"><g transform="translate(0 0)"><g transform="translate(16.337 1.853)"><path class="b" d="M228.2,381.222a2.852,2.852,0,0,0,.02-.327,2.093,2.093,0,0,0-.025-.327l.7-.553a.174.174,0,0,0,.041-.213l-.662-1.161a.167.167,0,0,0-.2-.076l-.823.335a2.391,2.391,0,0,0-.558-.327l-.124-.888a.167.167,0,0,0-.166-.143H225.08a.162.162,0,0,0-.161.143l-.124.888a2.471,2.471,0,0,0-.558.327l-.823-.335a.163.163,0,0,0-.2.076l-.662,1.161a.164.164,0,0,0,.041.213l.7.553a1.991,1.991,0,0,0,0,.654l-.7.553a.175.175,0,0,0-.041.214l.661,1.161a.168.168,0,0,0,.2.075l.823-.335a2.429,2.429,0,0,0,.558.327l.125.889a.168.168,0,0,0,.165.142H226.4a.159.159,0,0,0,.161-.142l.124-.889a2.484,2.484,0,0,0,.559-.327l.823.335a.163.163,0,0,0,.2-.075l.661-1.161a.163.163,0,0,0-.041-.214Zm-2.462.93a1.257,1.257,0,1,1,1.241-1.257A1.253,1.253,0,0,1,225.742,382.152Z" transform="translate(-222.525 -377.543)"/></g><path class="b" d="M205.049,382.39a4.225,4.225,0,0,0,.3-.415,3.246,3.246,0,0,0,.243-.454l1.392-.129a.27.27,0,0,0,.234-.247l.1-2.109a.267.267,0,0,0-.205-.275l-1.373-.267a3.856,3.856,0,0,0-.464-.915l.584-1.284a.266.266,0,0,0-.1-.332l-1.753-1.144a.252.252,0,0,0-.334.05l-.912,1.069a3.875,3.875,0,0,0-1.015-.05l-.808-1.155a.255.255,0,0,0-.332-.076l-1.854.966a.256.256,0,0,0-.125.319l.46,1.337a3.1,3.1,0,0,0-.556.862l-1.392.129a.271.271,0,0,0-.235.247l-.1,2.11a.268.268,0,0,0,.2.275l1.373.267a3.882,3.882,0,0,0,.465.915l-.584,1.284a.269.269,0,0,0,.1.332l1.753,1.144a.247.247,0,0,0,.333-.05l.913-1.069a3.877,3.877,0,0,0,1.015.05l.808,1.155a.255.255,0,0,0,.332.075l1.854-.966a.257.257,0,0,0,.125-.319ZM201,381.5a2,2,0,0,1-.585-2.737,1.946,1.946,0,0,1,2.7-.593,2,2,0,0,1,.586,2.737A1.946,1.946,0,0,1,201,381.5Z" transform="translate(-196.806 -374.626)"/><path class="b" d="M218.377,399.621a4.708,4.708,0,0,0,.335-.461,3.577,3.577,0,0,0,.269-.5l1.543-.143a.3.3,0,0,0,.26-.274l.112-2.338a.3.3,0,0,0-.227-.3l-1.522-.3a4.3,4.3,0,0,0-.515-1.014l.647-1.424a.293.293,0,0,0-.11-.367l-1.943-1.268a.279.279,0,0,0-.37.055l-1.011,1.185a4.3,4.3,0,0,0-1.125-.055l-.9-1.281a.283.283,0,0,0-.368-.083l-2.056,1.07a.285.285,0,0,0-.138.353l.51,1.482a3.445,3.445,0,0,0-.616.955l-1.543.142a.3.3,0,0,0-.26.274l-.112,2.338a.3.3,0,0,0,.227.3l1.522.3a4.293,4.293,0,0,0,.515,1.014l-.647,1.423a.3.3,0,0,0,.11.368l1.943,1.268a.274.274,0,0,0,.37-.055l1.011-1.185a4.27,4.27,0,0,0,1.125.055l.9,1.281a.283.283,0,0,0,.368.084l2.056-1.07a.285.285,0,0,0,.138-.353Zm-4.482-.992a2.22,2.22,0,0,1-.649-3.035,2.157,2.157,0,0,1,3-.657,2.219,2.219,0,0,1,.649,3.034A2.158,2.158,0,0,1,213.894,398.63Z" transform="translate(-201.342 -380.604)"/><path class="b" d="M245.067,391.175a6.347,6.347,0,0,0,.047-.743,4.764,4.764,0,0,0-.057-.742l1.587-1.256a.4.4,0,0,0,.094-.485l-1.5-2.636a.38.38,0,0,0-.46-.172l-1.87.762a5.474,5.474,0,0,0-1.269-.743l-.281-2.018a.377.377,0,0,0-.376-.323h-3.007a.367.367,0,0,0-.366.323l-.282,2.018a5.637,5.637,0,0,0-1.269.743l-1.869-.762a.37.37,0,0,0-.461.172l-1.5,2.636a.372.372,0,0,0,.094.485l1.587,1.256a4.853,4.853,0,0,0-.065.742,4.78,4.78,0,0,0,.057.743l-1.588,1.256a.4.4,0,0,0-.094.485l1.5,2.636a.379.379,0,0,0,.46.172l1.869-.762a5.493,5.493,0,0,0,1.269.743l.282,2.017a.384.384,0,0,0,.375.324h3.007a.361.361,0,0,0,.367-.324l.282-2.017a5.632,5.632,0,0,0,1.268-.743l1.869.762a.37.37,0,0,0,.461-.172l1.5-2.636a.372.372,0,0,0-.094-.485Zm-5.59,2.113a2.855,2.855,0,1,1,2.818-2.855A2.845,2.845,0,0,1,239.477,393.288Z" transform="translate(-209.706 -377.615)"/></g></g></g></g></g></svg>