<?xml version="1.0" encoding="utf-8"?>
<!-- Generator: Adobe Illustrator 23.0.1, SVG Export Plug-In . SVG Version: 6.00 Build 0)  -->
<svg version="1.1" id="Capa_1" xmlns="http://www.w3.org/2000/svg" xmlns:xlink="http://www.w3.org/1999/xlink" x="0px" y="0px"
	 viewBox="0 0 208 117" style="enable-background:new 0 0 208 117;" xml:space="preserve">
<style type="text/css">
	.st0{fill:#FFFFFF;}
	.st1{fill:#434850;}
</style>
<path class="st0" d="M203.5,115.5H4.5c-1.7,0-3-1.3-3-3V4.5c0-1.7,1.3-3,3-3h199c1.7,0,3,1.3,3,3v108
	C206.5,114.2,205.2,115.5,203.5,115.5z"/>
<g>
	<g>
		<path class="st1" d="M116.5,24H91.5c-4.3,0-7.8,3.5-7.8,7.8v53.3c0,4.3,3.5,7.8,7.8,7.8h25.1c4.3,0,7.8-3.5,7.8-7.8V31.8
			C124.4,27.5,120.9,24,116.5,24z M104,89.9c-2.6,0-4.7-2.1-4.7-4.7s2.1-4.7,4.7-4.7s4.7,2.1,4.7,4.7S106.6,89.9,104,89.9z
			 M118.1,77.3H89.9V33.4h28.2V77.3z"/>
	</g>
	<g>
		<path class="st1" d="M95.3,51.8h2c0.2-1.2,0.6-2.4,1.1-3.3c0.5-1,1.1-1.8,1.9-2.5c0.7-0.7,1.6-1.2,2.5-1.6s1.9-0.6,3-0.6
			c1.4,0,2.6,0.3,3.6,0.8c1,0.5,1.8,1.3,2.5,2.2l-1.3,1.4c-0.1,0.1-0.2,0.2-0.3,0.3c-0.1,0.1-0.3,0.1-0.5,0.1c-0.1,0-0.3,0-0.4-0.1
			c-0.1-0.1-0.2-0.2-0.4-0.3s-0.3-0.3-0.5-0.4s-0.4-0.3-0.6-0.4c-0.2-0.1-0.5-0.2-0.8-0.3c-0.3-0.1-0.7-0.1-1.2-0.1
			c-1.2,0-2.2,0.4-3,1.2s-1.4,2-1.7,3.6h7.6v1.2c0,0.2-0.1,0.4-0.3,0.6s-0.4,0.3-0.8,0.3H101c0,0.2,0,0.3,0,0.5s0,0.3,0,0.5
			c0,0.1,0,0.2,0,0.4s0,0.2,0,0.3h6.4v1.1c0,0.2-0.1,0.4-0.3,0.6c-0.2,0.2-0.4,0.3-0.8,0.3h-5.2c0.3,1.7,0.8,3,1.6,3.9
			c0.8,0.9,1.8,1.3,3,1.3c0.7,0,1.3-0.1,1.8-0.3s0.8-0.4,1.1-0.7c0.3-0.2,0.5-0.5,0.7-0.7s0.4-0.3,0.6-0.3c0.1,0,0.2,0,0.3,0.1
			c0.1,0,0.2,0.1,0.3,0.2l1.6,1.5c-0.7,1.1-1.6,1.9-2.7,2.5c-1.1,0.6-2.4,0.9-3.8,0.9c-1.2,0-2.2-0.2-3.2-0.6
			c-0.9-0.4-1.8-1-2.5-1.7c-0.7-0.7-1.3-1.6-1.7-2.6s-0.8-2.2-0.9-3.5h-1.9v-2.1h1.8c0-0.1,0-0.2,0-0.3s0-0.2,0-0.4
			c0-0.2,0-0.3,0-0.5s0-0.3,0-0.5h-1.8V51.8z"/>
	</g>
</g>
</svg>
