<?xml version="1.0" encoding="utf-8"?>
<!-- Generator: Adobe Illustrator 23.0.1, SVG Export Plug-In . SVG Version: 6.00 Build 0)  -->
<svg version="1.1" id="Capa_1" xmlns="http://www.w3.org/2000/svg" xmlns:xlink="http://www.w3.org/1999/xlink" x="0px" y="0px"
	 viewBox="0 0 208 117" style="enable-background:new 0 0 208 117;" xml:space="preserve">
<style type="text/css">
	.st0{fill:#434850;}
</style>
<g>
	<g>
		<path class="st0" d="M117.6,21H90.4c-4.7,0-8.5,3.8-8.5,8.5v57.9c0,4.7,3.8,8.5,8.5,8.5h27.3c4.7,0,8.5-3.8,8.5-8.5V29.5
			C126.2,24.8,122.3,21,117.6,21z M104,92.6c-2.8,0-5.1-2.3-5.1-5.1c0-2.8,2.3-5.1,5.1-5.1s5.1,2.3,5.1,5.1
			C109.1,90.3,106.8,92.6,104,92.6z M119.3,78.9H88.7V31.2h30.7V78.9z"/>
	</g>
	<g>
		<path class="st0" d="M94.6,51.2h2.2c0.3-1.3,0.7-2.6,1.2-3.6s1.2-2,2-2.8c0.8-0.8,1.7-1.3,2.7-1.8c1-0.4,2.1-0.6,3.3-0.6
			c1.5,0,2.8,0.3,3.9,0.9c1.1,0.6,2,1.4,2.7,2.4l-1.4,1.6c-0.1,0.1-0.2,0.2-0.3,0.3s-0.3,0.1-0.5,0.1c-0.2,0-0.3,0-0.4-0.1
			s-0.3-0.2-0.4-0.3c-0.2-0.1-0.3-0.3-0.5-0.4c-0.2-0.2-0.4-0.3-0.7-0.4c-0.3-0.1-0.6-0.2-0.9-0.3c-0.4-0.1-0.8-0.1-1.3-0.1
			c-1.3,0-2.4,0.4-3.3,1.3s-1.5,2.2-1.9,3.9h8.3v1.3c0,0.3-0.1,0.5-0.3,0.7c-0.2,0.2-0.5,0.3-0.8,0.3h-7.4c0,0.2,0,0.4,0,0.6
			c0,0.2,0,0.4,0,0.6c0,0.1,0,0.3,0,0.4s0,0.3,0,0.4h7v1.2c0,0.3-0.1,0.5-0.3,0.7s-0.5,0.3-0.8,0.3h-5.7c0.3,1.9,0.9,3.3,1.8,4.2
			c0.9,0.9,2,1.4,3.3,1.4c0.8,0,1.4-0.1,1.9-0.3c0.5-0.2,0.9-0.5,1.2-0.7c0.3-0.3,0.6-0.5,0.8-0.7s0.4-0.3,0.7-0.3
			c0.1,0,0.2,0,0.3,0.1c0.1,0,0.2,0.1,0.3,0.2l1.8,1.6c-0.8,1.2-1.7,2.1-2.9,2.7c-1.2,0.6-2.6,0.9-4.1,0.9c-1.3,0-2.4-0.2-3.5-0.7
			s-1.9-1-2.7-1.8s-1.4-1.7-1.9-2.9c-0.5-1.1-0.8-2.4-1-3.8h-2.1v-2.3h1.9c0-0.1,0-0.2,0-0.4s0-0.3,0-0.4c0-0.2,0-0.4,0-0.6
			c0-0.2,0-0.4,0-0.6h-1.9V51.2z"/>
	</g>
</g>
</svg>
