<?xml version="1.0" encoding="utf-8"?>
<!-- Generator: Adobe Illustrator 23.0.1, SVG Export Plug-In . SVG Version: 6.00 Build 0)  -->
<svg version="1.1" id="Capa_1" xmlns="http://www.w3.org/2000/svg" xmlns:xlink="http://www.w3.org/1999/xlink" x="0px" y="0px"
	 viewBox="0 0 208 117" style="enable-background:new 0 0 208 117;" xml:space="preserve">
<style type="text/css">
	.st0{fill:#434850;}
</style>
<path class="st0" d="M86.1,57.2l16.2-16.2c0.2,0,0.4,0.1,0.7,0.1c1.3,0,2.5-0.6,3.3-1.5l10,10c0.7,1.7,2.3,2.9,4.2,2.9
	c1.7,0,3.1-0.9,3.9-2.3h16.2c0.8,1.4,2.2,2.3,3.9,2.3c2.5,0,4.6-2,4.6-4.6c0-2.5-2-4.6-4.6-4.6c-1.7,0-3.1,0.9-3.9,2.3h-16.2
	c-0.8-1.4-2.2-2.3-3.9-2.3c-1.1,0-2.1,0.4-2.9,1.1l-8.3-8.3l8.5-8.5c0.8,0.6,1.7,0.9,2.7,0.9c1.7,0,3.1-0.9,3.9-2.3h16.2
	c0.8,1.4,2.2,2.3,3.9,2.3c2.5,0,4.6-2,4.6-4.6s-2-4.6-4.6-4.6c-1.7,0-3.1,0.9-3.9,2.3h-16.2c-0.8-1.4-2.2-2.3-3.9-2.3
	c-2.1,0-3.9,1.5-4.4,3.4l-10.2,10.2c-0.8-0.7-1.9-1.2-3-1.2c-2.5,0-4.6,2-4.6,4.6c0,0.6,0.1,1.1,0.3,1.6l-18,18l0,0H70.2v-3.4H58.9
	v11.3h11.3v-3.4h10.5l0,0l18,18c-0.2,0.5-0.3,1.1-0.3,1.6c0,2.5,2,4.6,4.6,4.6c1.1,0,2-0.4,2.8-1l10.6,10.6c0.7,1.7,2.3,2.8,4.2,2.8
	c1.7,0,3.1-0.9,3.9-2.3h16.2c0.8,1.4,2.2,2.3,3.9,2.3c2.5,0,4.6-2,4.6-4.6s-2-4.6-4.6-4.6c-1.7,0-3.1,0.9-3.9,2.3h-16.2
	c-0.8-1.4-2.2-2.3-3.9-2.3c-1.1,0-2.2,0.4-3,1.1l-8.5-8.5l8.5-8.5c0.8,0.7,1.8,1.1,2.9,1.1c1.7,0,3.1-0.9,3.9-2.3h16.2
	c0.8,1.4,2.2,2.3,3.9,2.3c2.5,0,4.6-2,4.6-4.6s-2-4.6-4.6-4.6c-1.7,0-3.1,0.9-3.9,2.3h-16.2c-0.8-1.4-2.2-2.3-3.9-2.3
	c-1.9,0-3.6,1.2-4.2,2.9l-10,10c-0.8-0.9-2-1.5-3.3-1.5c-0.2,0-0.4,0-0.7,0.1L86.1,59.8V57.2z"/>
</svg>
