<svg xmlns="http://www.w3.org/2000/svg" width="64" height="64" viewBox="0 0 64 64"><defs><style>.a{fill:#f1f1f1;opacity:0;}.b{fill:#5b646d;}</style></defs><g transform="translate(-1221 -761)"><rect class="a" width="64" height="64" transform="translate(1221 761)"/><g transform="translate(-483.649 402.095)"><g transform="translate(1706.387 363.905)"><circle class="b" cx="3.151" cy="3.151" r="3.151" transform="translate(0 23.718)"/><rect class="b" width="3.151" height="12.753" transform="translate(5.253 28.445) rotate(-90)"/><circle class="b" cx="3.151" cy="3.151" r="3.151" transform="translate(55.187 30.91)"/><circle class="b" cx="3.151" cy="3.151" r="3.151" transform="translate(55.187 47.436)"/><rect class="b" width="3.151" height="12.753" transform="translate(43.465 52.163) rotate(-90)"/><rect class="b" width="3.151" height="12.753" transform="translate(43.465 35.637) rotate(-90)"/><rect class="b" width="3.151" height="12.753" transform="translate(30.1 43.033) rotate(-45)"/><rect class="b" width="3.151" height="12.753" transform="translate(32.686 43.528) rotate(-135)"/><rect class="b" width="3.151" height="18.986" transform="translate(14.278 28.463) rotate(-45)"/><rect class="b" width="3.151" height="18.986" transform="translate(16.506 27.504) rotate(-135)"/><circle class="b" cx="3.151" cy="3.151" r="3.151" transform="translate(26.454 38.836)"/><circle class="b" cx="3.151" cy="3.151" r="3.151" transform="translate(38.617 30.91)"/><circle class="b" cx="3.151" cy="3.151" r="3.151" transform="translate(38.617 47.436)"/><circle class="b" cx="3.151" cy="3.151" r="3.151" transform="translate(55.187 16.526)"/><circle class="b" cx="3.151" cy="3.151" r="3.151" transform="translate(55.187)"/><rect class="b" width="3.151" height="12.753" transform="translate(56.218 1.576) rotate(90)"/><rect class="b" width="3.151" height="12.753" transform="translate(56.218 18.102) rotate(90)"/><rect class="b" width="3.151" height="12.753" transform="translate(39.118 1.968) rotate(45)"/><rect class="b" width="3.151" height="12.753" transform="translate(41.704 19.229) rotate(135)"/><circle class="b" cx="3.151" cy="3.151" r="3.151" transform="translate(26.454 8.6)"/><circle class="b" cx="3.151" cy="3.151" r="3.151" transform="translate(38.617 16.526)"/><circle class="b" cx="3.151" cy="3.151" r="3.151" transform="translate(38.617)"/></g><rect class="b" width="7.776" height="7.776" transform="translate(1705.65 386.887)"/></g></g></svg>