<?xml version="1.0" encoding="utf-8"?>
<!-- Generator: Adobe Illustrator 23.0.1, SVG Export Plug-In . SVG Version: 6.00 Build 0)  -->
<svg version="1.1" id="Capa_1" xmlns="http://www.w3.org/2000/svg" xmlns:xlink="http://www.w3.org/1999/xlink" x="0px" y="0px"
	 viewBox="0 0 208 117" style="enable-background:new 0 0 208 117;" xml:space="preserve">
<style type="text/css">
	.st0{fill:#FFFFFF;}
	.st1{fill:#434850;}
</style>
<g>
	<path class="st0" d="M203.5,115.5H4.5c-1.7,0-3-1.3-3-3V4.5c0-1.7,1.3-3,3-3h199c1.7,0,3,1.3,3,3v108
		C206.5,114.2,205.2,115.5,203.5,115.5z"/>
	<g>
		<g>
			<circle class="st1" cx="67.9" cy="58.5" r="4.2"/>
			
				<rect x="77.1" y="50" transform="matrix(6.123234e-17 -1 1 6.123234e-17 20.642 137.642)" class="st1" width="4.2" height="16.9"/>
			<circle class="st1" cx="141.1" cy="68" r="4.2"/>
			<circle class="st1" cx="141.1" cy="89.9" r="4.2"/>
			
				<rect x="127.7" y="81.5" transform="matrix(6.123234e-17 -1 1 6.123234e-17 39.8605 219.7567)" class="st1" width="4.2" height="16.9"/>
			
				<rect x="127.7" y="59.6" transform="matrix(6.123234e-17 -1 1 6.123234e-17 61.7727 197.8446)" class="st1" width="4.2" height="16.9"/>
			
				<rect x="109" y="76" transform="matrix(0.7071 -0.7071 0.7071 0.7071 -27.1657 103.2818)" class="st1" width="4.2" height="16.9"/>
			
				<rect x="109.5" y="64.7" transform="matrix(-0.7071 -0.7071 0.7071 -0.7071 138.737 203.7308)" class="st1" width="4.2" height="16.9"/>
			
				<rect x="90.9" y="55.4" transform="matrix(0.7071 -0.7071 0.7071 0.7071 -20.8603 85.7107)" class="st1" width="4.2" height="25.2"/>
			
				<rect x="90.9" y="36.4" transform="matrix(-0.7071 -0.7071 0.7071 -0.7071 124.1924 149.3703)" class="st1" width="4.2" height="25.2"/>
			<circle class="st1" cx="103" cy="78.5" r="4.2"/>
			<circle class="st1" cx="119.1" cy="68" r="4.2"/>
			<circle class="st1" cx="119.1" cy="89.9" r="4.2"/>
			<circle class="st1" cx="141.1" cy="49" r="4.2"/>
			<circle class="st1" cx="141.1" cy="27.1" r="4.2"/>
			
				<rect x="127.7" y="18.6" transform="matrix(-6.442598e-11 1 -1 -6.442598e-11 156.8605 -102.7567)" class="st1" width="4.2" height="16.9"/>
			
				<rect x="127.7" y="40.5" transform="matrix(-6.224994e-11 1 -1 -6.224994e-11 178.7727 -80.8446)" class="st1" width="4.2" height="16.9"/>
			
				<rect x="109" y="24.5" transform="matrix(0.7071 0.7071 -0.7071 0.7071 55.8286 -68.9044)" class="st1" width="4.2" height="16.9"/>
			
				<rect x="109.5" y="35.4" transform="matrix(-0.7071 0.7071 -0.7071 -0.7071 221.4685 -3.9993)" class="st1" width="4.2" height="16.9"/>
			<circle class="st1" cx="103" cy="38.5" r="4.2"/>
			<circle class="st1" cx="119.1" cy="49" r="4.2"/>
			<circle class="st1" cx="119.1" cy="27.1" r="4.2"/>
		</g>
		<rect x="62.7" y="53.3" class="st1" width="10.3" height="10.3"/>
	</g>
</g>
</svg>
